<svg id="Layer_1" data-name="Layer 1" xmlns="http://www.w3.org/2000/svg" viewBox="0 0 229.7 163.32"><defs><style>.cls-1,.cls-3{fill:#38ffc2;}.cls-2{fill:#b6efbb;}.cls-3{fill-rule:evenodd;}.cls-4{fill:#f297cf;}.cls-5{fill:#f43172;}.cls-6{fill:#f20f96;}.cls-7{fill:#ff8dd1;}.cls-8{fill:#ffe000;}</style></defs><path class="cls-1" d="M177.4,54.94c-15.83-13.88-34.79-21.22-54.95-21.22S83.34,41.06,67.5,54.94C52.15,68.27,40.87,87.32,35.59,108.27a21.42,21.42,0,0,0,2.88,17.14c3.36,4.89,8.16,7.62,13.68,7.62H192.76c5.52,0,10.32-2.73,13.68-7.62a21.42,21.42,0,0,0,2.88-17.14C204,87.32,192.76,68.27,177.4,54.94Z"/><path d="M192.76,134.77H52.15c-6,0-11.42-3-15.12-8.38a23.14,23.14,0,0,1-3.14-18.53c5.42-21.51,17-40.77,32.47-54.24C82.52,39.46,101.92,32,122.45,32h0c20.54,0,39.93,7.49,56.1,21.66,15.52,13.47,27,32.72,32.46,54.21a23.17,23.17,0,0,1-3.13,18.55C204.17,131.8,198.81,134.77,192.76,134.77ZM122.45,35.46c-19.67,0-38.28,7.19-53.8,20.79-15,13-26.13,31.64-31.37,52.44a19.69,19.69,0,0,0,2.63,15.73c3.08,4.49,7.31,6.86,12.24,6.86H192.76c4.93,0,9.16-2.37,12.24-6.86a19.72,19.72,0,0,0,2.62-15.75c-5.24-20.78-16.38-39.4-31.36-52.41h0C160.73,42.65,142.13,35.46,122.45,35.46Z"/><path class="cls-2" d="M36.94,95.14a2.17,2.17,0,0,0-.74,2.79,1.75,1.75,0,0,0,.8.75,1.79,1.79,0,0,0,1.79-.17c.32-.2,8.07-5.08,20.67-.3,8.3,3.14,12.15,1.08,13.92-1.21,2.21-2.86,1.94-7.21.41-9.78-.6-1-.53-1.82-.3-2.09s1.19-.43,2.7.38c.78.41,1.59.89,2.47,1.4,4.51,2.62,10.68,6.21,19.87,6.79,5,.32,8.87-1.84,10.56-5.94,2-4.93.27-11.09-4.3-15a12.74,12.74,0,0,1-1.6-1.55,21.24,21.24,0,0,1,6.41.58c8,1.81,14,.15,17.86-4.92a19.18,19.18,0,0,0,3.4-14.63A12.33,12.33,0,0,0,123.45,43a32,32,0,0,0-15.34-2.63c-1.19-3.49-5.09-11-16.61-10.66-8.72.23-17,5-21.59,8.48l-.1-.17c-1.84-3-6.47-4.49-12.7-1C48,42,31.63,83.92,29.74,88.8h0v0a1.85,1.85,0,0,0,0,.23,1.93,1.93,0,0,0-.11.53,2.83,2.83,0,0,0,.07.42,1.21,1.21,0,0,0,.07.33,1.45,1.45,0,0,0,.31.5.91.91,0,0,0,.08.13h0s.07,0,.09.06a2,2,0,0,0,.42.3l.07,0,0,0a.68.68,0,0,0,.14,0,1.61,1.61,0,0,0,.49.07l.22,0a1.57,1.57,0,0,0,.47-.13l.18-.06a2.26,2.26,0,0,0,.56-.43"/><path d="M66.93,101.56a23.12,23.12,0,0,1-8.09-1.72c-11.78-4.46-18.8,0-19.1.14a3.5,3.5,0,0,1-5.06-1.2A3.9,3.9,0,0,1,36,93.69l1.93,2.9a.46.46,0,0,0-.17.5c.47-.27,8.93-5.6,22.35-.51,4,1.52,9.37,2.65,11.93-.65a7.51,7.51,0,0,0,.28-7.81c-.9-1.51-1-3.17-.12-4.13s2.42-1.32,4.85,0c.71.38,1.47.82,2.29,1.29l.23.14c4.35,2.53,10.31,6,19.1,6.56,4.29.28,7.42-1.45,8.83-4.86,1.76-4.24.19-9.58-3.82-13a15.2,15.2,0,0,1-1.8-1.77l-2.06-2.48,3.2-.37a23,23,0,0,1,7,.62c7.34,1.67,12.6.26,16.08-4.28a17.27,17.27,0,0,0,3.08-13.22,10.5,10.5,0,0,0-6.4-8,30.27,30.27,0,0,0-14.49-2.5l-1.36.13-.45-1.3c-1.24-3.66-4.85-9.77-14.91-9.48C82,31.75,73.39,37.78,71,39.62l-1.61,1.23-1-1.78c-1.45-2.39-5.2-3.41-10.42-.52-6,3.33-17.91,28.5-26.47,50.59l-.07.19a1.36,1.36,0,0,1,0,.17l0,.1.1.09.13,0,.06.13.21.11v.24L34.07,92a3.8,3.8,0,0,1-1,.75l-.39.17a3.21,3.21,0,0,1-.89.24l-.4,0a3.24,3.24,0,0,1-.8-.08L30.06,93l-.22-.1a2.8,2.8,0,0,1-.67-.45l-.81-.4v-.53a2.68,2.68,0,0,1-.42-1.16,3.12,3.12,0,0,1-.1-.8,3.44,3.44,0,0,1,.15-.91s0,0,0-.05v-.2l.19-.38c3-7.73,18.65-47.31,28.08-52.53,6.31-3.49,11.31-2.46,14,.32C74.34,33,82.38,28.25,91.45,28h.75c10.92,0,15.38,6.62,17.08,10.59a34.53,34.53,0,0,1,14.86,2.85,14,14,0,0,1,8.43,10.48,21,21,0,0,1-3.73,16c-4.33,5.66-10.93,7.54-19.62,5.57-.53-.12-1-.22-1.51-.3,3.78,4.34,5,10.3,3,15.21-2,4.76-6.57,7.37-12.28,7-9.61-.62-16-4.33-20.64-7l-.23-.14-1.77-1a11,11,0,0,1-1,10.8C73.38,99.86,71,101.56,66.93,101.56Zm-37.3-8.82h0Z"/><path class="cls-3" d="M17,79.33a5.76,5.76,0,0,0,.46,5.8l30.81,43.66a5.89,5.89,0,0,0,10.08-1l21.49-48a5.86,5.86,0,0,0-5.78-8.17L21.8,76A5.78,5.78,0,0,0,17,79.33Z"/><path d="M53,132.94a7.42,7.42,0,0,1-6.12-3.14L16.07,86.14a7.46,7.46,0,0,1-.61-7.55h0a7.48,7.48,0,0,1,6.2-4.38L74,69.87A7.62,7.62,0,0,1,81.48,80.5L60,128.5a7.47,7.47,0,0,1-6.2,4.4A6.79,6.79,0,0,1,53,132.94ZM74.57,73.33l-.32,0L22,77.69a4,4,0,0,0-3.33,2.38h0a4,4,0,0,0,.31,4.06l30.81,43.65a4,4,0,0,0,3.7,1.64,4,4,0,0,0,3.36-2.34l21.49-48a4.14,4.14,0,0,0-3.72-5.74Z"/><path class="cls-3" d="M40.05,53.31a5.76,5.76,0,0,0-2.48,5.27l5.1,53.19a5.88,5.88,0,0,0,9.24,4.13l42.48-31a5.86,5.86,0,0,0-1-10L45.86,52.74A5.81,5.81,0,0,0,40.05,53.31Z"/><path d="M48.56,118.75a7.64,7.64,0,0,1-3.18-.7,7.43,7.43,0,0,1-4.45-6.11L35.84,58.75A7.64,7.64,0,0,1,46.6,51.16L94.17,73.34a7.61,7.61,0,0,1,1.25,13l-42.48,31A7.32,7.32,0,0,1,48.56,118.75ZM43.46,54a4.15,4.15,0,0,0-2.4.79h0a4,4,0,0,0-1.75,3.68l5.09,53.19a4.14,4.14,0,0,0,6.48,2.88l42.48-31a4.12,4.12,0,0,0-.67-7L45.13,54.32A4.09,4.09,0,0,0,43.46,54Z"/><path class="cls-4" d="M133.15,30.12a26.72,26.72,0,1,0,26.71,26.71A26.74,26.74,0,0,0,133.15,30.12Z"/><path d="M133.14,85.29a28.46,28.46,0,1,1,28.47-28.46A28.49,28.49,0,0,1,133.14,85.29Zm0-53.43a25,25,0,1,0,25,25A25,25,0,0,0,133.14,31.86Z"/><path class="cls-3" d="M72.09,33a5.78,5.78,0,0,0-3.81,4.41L58.89,90.05a5.88,5.88,0,0,0,7.79,6.46l49.26-18.46a5.87,5.87,0,0,0,1.75-9.86L77.83,34.05A5.78,5.78,0,0,0,72.09,33Z"/><path d="M64.68,98.62a7.59,7.59,0,0,1-4.87-1.79,7.45,7.45,0,0,1-2.64-7.09l9.39-52.6A7.65,7.65,0,0,1,79,32.72l39.86,34.15a7.62,7.62,0,0,1-2.28,12.82L67.29,98.15A7.42,7.42,0,0,1,64.68,98.62Zm9.44-64.2a4.35,4.35,0,0,0-1.45.26h0A4,4,0,0,0,70,37.75l-9.39,52.6A4,4,0,0,0,62,94.14a4.06,4.06,0,0,0,4,.74l49.25-18.46a4.12,4.12,0,0,0,1.23-6.9L76.7,35.37A4,4,0,0,0,74.12,34.42Z"/><path class="cls-3" d="M109.18,28a5.77,5.77,0,0,0-5.1,2.83l-27,46.12a5.88,5.88,0,0,0,5.08,8.75l52.6-.31a5.87,5.87,0,0,0,5.05-8.64L114.22,30.92A5.79,5.79,0,0,0,109.18,28Z"/><path d="M82.15,87.43A7.64,7.64,0,0,1,75.59,76l27-46.12a7.49,7.49,0,0,1,6.54-3.69h.09a7.52,7.52,0,0,1,6.55,3.83l25.6,45.82a7.61,7.61,0,0,1-6.56,11.24l-52.6.31Zm27-57.7a4,4,0,0,0-3.52,2l-27,46.12a4,4,0,0,0,0,4,4,4,0,0,0,3.51,2.08h0l52.6-.31a4.12,4.12,0,0,0,3.53-6L112.7,31.77a4,4,0,0,0-3.54-2Z"/><path class="cls-5" d="M133.15,38.8a18,18,0,1,0,18,18A18,18,0,0,0,133.15,38.8Z"/><path d="M133.14,76.61a19.78,19.78,0,1,1,19.78-19.78A19.8,19.8,0,0,1,133.14,76.61Zm0-36.06a16.28,16.28,0,1,0,16.29,16.28A16.3,16.3,0,0,0,133.14,40.55Z"/><path class="cls-4" d="M186.52,70.39A26.72,26.72,0,1,0,213.23,97.1,26.75,26.75,0,0,0,186.52,70.39Z"/><path d="M186.52,125.56A28.46,28.46,0,1,1,215,97.1,28.48,28.48,0,0,1,186.52,125.56Zm0-53.43a25,25,0,1,0,25,25A25,25,0,0,0,186.52,72.13Z"/><path class="cls-5" d="M186.52,79.07a18,18,0,1,0,18,18A18.05,18.05,0,0,0,186.52,79.07Z"/><path d="M186.52,116.88A19.78,19.78,0,1,1,206.29,97.1,19.8,19.8,0,0,1,186.52,116.88Zm0-36.06A16.29,16.29,0,1,0,202.8,97.1,16.29,16.29,0,0,0,186.52,80.82Z"/><path class="cls-6" d="M167.27,44.87A26.72,26.72,0,1,0,194,71.59,26.74,26.74,0,0,0,167.27,44.87Z"/><path d="M167.26,100.05a28.47,28.47,0,1,1,28.47-28.46A28.5,28.5,0,0,1,167.26,100.05Zm0-53.43a25,25,0,1,0,25,25A25,25,0,0,0,167.26,46.62Z"/><path class="cls-7" d="M167.27,52.33a19.26,19.26,0,1,0,19.25,19.26A19.28,19.28,0,0,0,167.27,52.33Z"/><path d="M167.26,92.59a21,21,0,1,1,21-21A21,21,0,0,1,167.26,92.59Zm0-38.51a17.51,17.51,0,1,0,17.51,17.51A17.52,17.52,0,0,0,167.26,54.08Z"/><path class="cls-8" d="M165,69.1a86,86,0,0,0-105,0A87.2,87.2,0,0,0,29.53,114a16.37,16.37,0,0,0,15.82,20.85l147.59.47a16.38,16.38,0,0,0,15.81-20.86C203.71,96.84,179.64,80.33,165,69.1Z"/><path d="M192.94,137.08l-147.6-.46a18.12,18.12,0,0,1-17.49-23.06A88.77,88.77,0,0,1,59,67.72a87.7,87.7,0,0,1,107.08,0h0c1.53,1.17,3.17,2.4,4.87,3.68,14.71,11.08,34.86,26.24,39.53,42.6a18.12,18.12,0,0,1-17.49,23.08ZM112.49,53A83.3,83.3,0,0,0,61.08,70.49a85.23,85.23,0,0,0-29.87,44,14.61,14.61,0,0,0,2.45,12.89,14.37,14.37,0,0,0,11.69,5.74l147.6.46a14.34,14.34,0,0,0,11.68-5.74,14.6,14.6,0,0,0,2.44-12.91c-4.35-15.21-23.95-30-38.27-40.75-1.71-1.29-3.35-2.52-4.89-3.7h0A83.3,83.3,0,0,0,112.49,53Z"/><path d="M94.81,85.44a8.15,8.15,0,0,0-7.61-7.35c-4.46-.27-7.61,3.41-8.66,7.35-.79,3.15,4.2,4.72,5,1.31.27-1.58,1.32-3.41,3.15-3.68a3.48,3.48,0,0,1,2.89,2.1C89.82,88.85,95.07,88.85,94.81,85.44Z"/><path d="M124.34,78.09a8.16,8.16,0,0,0-7.61,7.35c-.52,3.41,4.73,3.41,5.25,0a2.6,2.6,0,0,1,2.89-2.1c1.84,0,2.62,2.1,3.15,3.67.79,3.15,6,1.84,5-1.31C132,81.5,128.81,77.82,124.34,78.09Z"/><path d="M122.36,104.85c0,4.34-7.41,7.86-16.56,7.86s-16.57-3.52-16.57-7.86,7.42-1.07,16.57-1.07S122.36,100.51,122.36,104.85Z"/><path d="M41.79,119.64a1.74,1.74,0,0,1-1.58-2.48l5.28-11.28a1.74,1.74,0,0,1,3.16,1.48l-5.28,11.28A1.73,1.73,0,0,1,41.79,119.64Z"/><path d="M49.78,123.38a1.76,1.76,0,0,1-.74-.16,1.74,1.74,0,0,1-.84-2.32l5.27-11.28a1.74,1.74,0,0,1,3.16,1.48l-5.27,11.28A1.75,1.75,0,0,1,49.78,123.38Z"/><path d="M190.3,121.26c-.17-3-4-4.43-4.37-4.57,0,0,0,0,0,0l3.94-4v-.43a.13.13,0,0,0-.12-.12h-7.28V109l-2.68.56V110h.15a.64.64,0,0,1,.65.66v1.47h-2.07a.09.09,0,0,0-.08.07v.94h2.16v5.08a2.4,2.4,0,0,0,2.82,2.55,2.18,2.18,0,0,0,1-.38.46.46,0,0,0,.22-.39v-.51a2,2,0,0,1-1.08.37c-1.13,0-1.11-1.44-1.11-1.44v-5.28h5.23l-3.77,3.8c0,.5,0,.89,0,.89s0,0,0,0c3.46.58,4.39,2.82,4.39,3.47a3,3,0,0,1-2.79,3.38s-2.07.09-2.44-.74a.07.07,0,0,1,0-.08.93.93,0,0,0,.58-.87,1.06,1.06,0,0,0-1.16-1.12A1.14,1.14,0,0,0,181.4,123s-.3,2.66,4.14,2.58c5.07-.09,4.76-4.34,4.76-4.34"/></svg>