<svg width="2250" height="1090" xmlns="http://www.w3.org/2000/svg" xmlns:xlink="http://www.w3.org/1999/xlink">
  <defs>
    <path id="b" d="M237 517h1140.98v1140.98H237z"/>
    <filter x="-5.3%" y="-5.3%" width="110.5%" height="110.5%" filterUnits="objectBoundingBox" id="a">
      <feOffset in="SourceAlpha" result="shadowOffsetOuter1"/>
      <feGaussianBlur stdDeviation="20" in="shadowOffsetOuter1" result="shadowBlurOuter1"/>
      <feColorMatrix values="0 0 0 0 0 0 0 0 0 0 0 0 0 0 0 0 0 0 0.405910326 0" in="shadowBlurOuter1"/>
    </filter>
    <path id="d" d="M871 237h1140.98v1140.98H871z"/>
    <filter x="-5.3%" y="-5.3%" width="110.5%" height="110.5%" filterUnits="objectBoundingBox" id="c">
      <feOffset in="SourceAlpha" result="shadowOffsetOuter1"/>
      <feGaussianBlur stdDeviation="20" in="shadowOffsetOuter1" result="shadowBlurOuter1"/>
      <feColorMatrix values="0 0 0 0 0 0 0 0 0 0 0 0 0 0 0 0 0 0 0.405910326 0" in="shadowBlurOuter1"/>
    </filter>
  </defs>
  <g fill="none" fill-rule="evenodd">
    <path fill="#123262" d="M0 0h2250v1090H0z"/>
    <g transform="translate(0 -863)">
      <g opacity=".2" style="mix-blend-mode:overlay" transform="rotate(45 807.49 1087.49)">
        <use fill="#000" filter="url(#a)" xlink:href="#b"/>
        <use fill="#2C7DF7" xlink:href="#b"/>
      </g>
      <g opacity=".2" style="mix-blend-mode:overlay" transform="rotate(45 1441.49 807.49)">
        <use fill="#000" filter="url(#c)" xlink:href="#d"/>
        <use fill="#2C7DF7" xlink:href="#d"/>
      </g>
      <circle fill="#7691C4" opacity=".147" style="mix-blend-mode:screen" cx="1613.695" cy="1089.695" r="40"/>
      <circle fill="#7691C4" opacity=".147" style="mix-blend-mode:screen" cx="1613.695" cy="1089.695" r="10"/>
      <circle fill="#7691C4" opacity=".147" style="mix-blend-mode:screen" cx="1264.195" cy="1440.195" r="23.5"/>
      <circle fill="#7691C4" opacity=".147" style="mix-blend-mode:screen" cx="1263.695" cy="1439.695" r="10"/>
      <g opacity=".482" fill="#FFF" fill-rule="nonzero">
        <path d="M1675.195 1025.902l-7.07 7.071-.708-.707 7.071-7.07-2.828-2.83.707-.706 6.364 6.364-.707.707-2.829-2.829zm-192.953 628.567l-7.02-7.02.707-.707 7.02 7.02 2.829-2.828.707.707-6.364 6.364-.707-.707 2.828-2.829zm178.811-615.839l.707.707-7.778 7.779-.707-.708 7.778-7.778zm-14.142 14.142l.707.708-7.778 7.778-.707-.707 7.778-7.779zm-14.142 14.143l.707.707-7.778 7.778-.707-.707 7.778-7.778zm-14.142 14.142l.707.707-7.778 7.778-.707-.707 7.778-7.778zm-14.142 14.142l.707.707-7.779 7.778-.707-.707 7.779-7.778zm-14.143 14.142l.708.707-7.779 7.778-.707-.707 7.778-7.778zm-14.142 14.142l.707.707-7.778 7.778-.707-.707 7.778-7.778zm-14.142 14.142l.707.707-7.778 7.778-.707-.707 7.778-7.778zm-14.142 14.142l.707.707-7.778 7.779-.707-.707 7.778-7.779zm-14.142 14.142l.707.708-7.778 7.778-.707-.707 7.778-7.779zm-14.142 14.143l.707.707-7.778 7.778-.707-.707 7.778-7.778zm-14.142 14.142l.707.707-7.778 7.778-.708-.707 7.779-7.778zm-14.143 14.142l.708.707-7.779 7.778-.707-.707 7.778-7.778zm-14.142 14.142l.707.707-7.778 7.778-.707-.707 7.778-7.778zm-14.142 14.142l.707.707-7.778 7.778-.707-.707 7.778-7.778zm-14.142 14.142l.707.707-7.778 7.779-.707-.708 7.778-7.778zm-14.142 14.142l.707.708-7.778 7.778-.707-.707 7.778-7.779zm-14.142 14.143l.707.707-7.778 7.778-.707-.707 7.778-7.778zm-14.142 14.142l.707.707-7.778 7.778-.708-.707 7.779-7.778zm-14.142 14.142l.707.707-7.779 7.778-.707-.707 7.779-7.778zm-14.143 14.142l.707.707-7.778 7.778-.707-.707 7.778-7.778zm-14.142 14.142l.707.707-7.778 7.778-.707-.707 7.778-7.778zm-14.142 14.142l.707.707-7.778 7.779-.707-.708 7.778-7.778zm-14.142 14.142l.707.707-7.778 7.779-.707-.707 7.778-7.779zm-14.142 14.143l.707.707-7.778 7.778-.707-.707 7.778-7.778zm-14.142 14.142l.707.707-7.778 7.778-.707-.707 7.778-7.778zm-14.142 14.142l.707.707-7.778 7.778-.708-.707 7.779-7.778zm-14.143 14.142l.708.707-7.779 7.778-.707-.707 7.778-7.778zm-14.073 15.487l6.434 6.433-.708.707-7.14-7.14 1.345-1.345.707.707-.638.638zm12.09 13.504l.708-.707 7.778 7.778-.707.707-7.779-7.778zm14.143 14.142l.707-.707 7.778 7.779-.707.707-7.778-7.779zm14.142 14.143l.707-.708 7.778 7.779-.707.707-7.778-7.778zm14.142 14.142l.707-.707 7.778 7.778-.707.707-7.778-7.778zm14.142 14.142l.707-.707 7.778 7.778-.707.707-7.778-7.778zm14.142 14.142l.707-.707 7.778 7.778-.707.707-7.778-7.778zm14.142 14.142l.707-.707 7.779 7.778-.708.707-7.778-7.778zm14.142 14.142l.707-.707 7.779 7.778-.707.707-7.779-7.778zm14.143 14.142l.707-.707 7.778 7.778-.707.708-7.778-7.779zm14.142 14.143l.707-.708 7.778 7.779-.707.707-7.778-7.778zm14.142 14.142l.707-.707 7.778 7.778-.707.707-7.778-7.778zm14.142 14.142l.707-.707 7.778 7.778-.707.707-7.778-7.778zm14.142 14.142l.707-.707 7.778 7.778-.707.707-7.778-7.778zm14.142 14.142l.707-.707 7.778 7.778-.707.707-7.778-7.778z" opacity=".263" style="mix-blend-mode:multiply"/>
        <path d="M1264.435 1436.248l-7.77 7.786.707.706 7.77-7.786-.707-.706zm-14.128 14.156l-7.77 7.786.707.707 7.77-7.786-.707-.707zm-14.128 14.157l-7.77 7.786.707.706 7.77-7.786-.707-.706zm-14.128 14.156l-7.77 7.786.707.706 7.77-7.786-.707-.706zm-14.128 14.156l-7.77 7.786.707.707 7.77-7.786-.707-.707zm-14.128 14.157l-7.77 7.786.708.706 7.77-7.786-.708-.706zm-14.128 14.156l-7.77 7.786.708.707 7.77-7.786-.708-.707zm-14.128 14.156l-7.77 7.786.708.707 7.77-7.786-.708-.707zm-14.128 14.157l-7.77 7.786.708.706 7.77-7.786-.708-.706zm-14.128 14.156l-7.77 7.786.708.707 7.77-7.786-.708-.707zm-14.127 14.157l-7.77 7.786.707.706 7.77-7.786-.707-.706zm-14.128 14.156l-7.77 7.786.707.706 7.77-7.786-.707-.706zm-14.128 14.156l-7.77 7.786.707.707 7.77-7.786-.707-.707zm-14.128 14.157l-7.77 7.786.707.706 7.77-7.786-.707-.706zm-14.128 14.156l-7.77 7.786.707.706 7.77-7.786-.707-.706zm-14.128 14.156l-7.77 7.786.707.707 7.77-7.786-.707-.707zm-14.128 14.157l-7.77 7.786.708.706 7.77-7.786-.708-.706zm-14.128 14.156l-7.77 7.786.708.706 7.77-7.786-.708-.706zm-14.128 14.156l-7.77 7.786.708.707 7.77-7.786-.708-.707zm-14.128 14.157l-7.77 7.786.708.706 7.77-7.786-.708-.706zm-14.128 14.156l-7.77 7.786.708.706 7.77-7.786-.708-.706zm-14.127 14.156l-7.77 7.786.707.707 7.77-7.786-.707-.707zm-14.128 14.157l-7.77 7.786.707.706 7.77-7.786-.707-.706zm-14.128 14.156l-7.77 7.786.707.706 7.77-7.786-.707-.706zM925.365 1776l-7.77 7.786.707.707 7.77-7.786-.707-.707zm-14.128 14.157l-7.77 7.786.707.706 7.77-7.786-.707-.706zm-14.128 14.156l-7.77 7.786.708.706 7.77-7.786-.708-.706zm-14.128 14.156l-7.77 7.786.708.707 7.77-7.786-.708-.707zm-14.128 14.157l-7.77 7.786.708.706 7.77-7.786-.708-.706zm-14.128 14.156l-7.77 7.786.708.707 7.77-7.786-.708-.707zm-14.128 14.156l-7.77 7.786.708.707 7.77-7.786-.708-.707zm-14.128 14.157l-7.77 7.786.708.706 7.77-7.786-.708-.706zm-14.127 14.156l-7.77 7.786.707.707 7.77-7.786-.707-.707zm-14.128 14.157l-7.77 7.786.707.706 7.77-7.786-.707-.706zm-14.128 14.156l-7.77 7.786.707.706 7.77-7.786-.707-.706zm-16.745 16.778l.708.706 2.617-2.621-.708-.707-2.617 2.622.708.706 5.154-5.164-.708-.706-5.154 5.164zm12.22-10.828l7.77-7.786-.708-.707-7.77 7.786.708.707zm14.127-14.156l7.77-7.786-.707-.707-7.77 7.786.707.707zm14.128-14.157l7.77-7.786-.707-.706-7.77 7.786.707.706zm14.128-14.156l7.77-7.786-.707-.707-7.77 7.786.707.707zm14.128-14.157l7.77-7.786-.707-.706-7.77 7.786.707.706zm14.128-14.156l7.77-7.786-.707-.706-7.77 7.786.707.706zm14.128-14.156l7.77-7.786-.707-.707-7.77 7.786.707.707zm14.128-14.157l7.77-7.786-.708-.706-7.77 7.786.708.706zm14.128-14.156l7.77-7.786-.708-.706-7.77 7.786.708.706zm14.128-14.156l7.77-7.786-.708-.707-7.77 7.786.708.707zm14.128-14.157l7.77-7.786-.708-.706-7.77 7.786.708.706zm14.128-14.156l7.77-7.786-.708-.706-7.77 7.786.708.706zm14.127-14.156l7.77-7.786-.707-.707-7.77 7.786.707.707zm14.128-14.157l7.77-7.786-.707-.706-7.77 7.786.707.706zm14.128-14.156l7.77-7.786-.707-.706-7.77 7.786.707.706zm14.128-14.156l7.77-7.786-.707-.707-7.77 7.786.707.707zm14.128-14.157l7.77-7.786-.707-.706-7.77 7.786.707.706zm14.128-14.156l7.77-7.786-.708-.706-7.77 7.786.708.706zm14.128-14.156l7.77-7.786-.708-.707-7.77 7.786.708.707zm14.128-14.157l7.77-7.786-.708-.706-7.77 7.786.708.706zm14.128-14.156l7.77-7.786-.708-.706-7.77 7.786.708.706zm14.128-14.156l7.77-7.786-.708-.707-7.77 7.786.708.707zm14.127-14.157l7.77-7.786-.707-.706-7.77 7.786.707.706zm14.128-14.156l7.77-7.786-.707-.707-7.77 7.786.707.707zm14.128-14.156l7.77-7.786-.707-.707-7.77 7.786.707.707zm14.128-14.157l7.77-7.786-.707-.706-7.77 7.786.707.706zm14.128-14.156l7.77-7.786-.707-.707-7.77 7.786.707.707zm14.128-14.157l7.77-7.786-.707-.706-7.77 7.786.707.706zm14.128-14.156l7.77-7.786-.708-.706-7.77 7.786.708.706zm14.128-14.156l7.77-7.786-.708-.707-7.77 7.786.708.707zm14.128-14.157l7.77-7.786-.708-.706-7.77 7.786.708.706zm14.128-14.156l7.77-7.786-.708-.706-7.77 7.786.708.706zm14.128-14.156l7.77-7.786-.708-.707-7.77 7.786.708.707zm14.127-14.157l7.77-7.786-.707-.706-7.77 7.786.707.706zm14.128-14.156l5.233-5.244-.707-.706-5.233 5.244.707.706z" opacity=".263" style="mix-blend-mode:multiply"/>
      </g>
    </g>
    <path d="M0 0h1453v89H0z"/>
  </g>
</svg>
