<?xml version="1.0" encoding="utf-8"?>
<!-- Generator: Adobe Illustrator 25.1.0, SVG Export Plug-In . SVG Version: 6.00 Build 0)  -->
<svg version="1.1" id="Layer_1" xmlns="http://www.w3.org/2000/svg" xmlns:xlink="http://www.w3.org/1999/xlink" x="0px" y="0px"
	 viewBox="0 0 683.9 237" style="enable-background:new 0 0 683.9 237;" xml:space="preserve">
<style type="text/css">
	.st0{fill:#0D61FF;}
	.st1{fill:#FFFFFF;}
	.st2{fill:#262D33;}
</style>
<g>
	<path class="st1" d="M339.3,57.8h-39.5v106.9h-9.7V57.8h-39.4v-8.2h88.6L339.3,57.8L339.3,57.8z"/>
	<path class="st1" d="M375.8,166.4c-7.3,0-13.9-1.8-19.7-5.4s-10.5-8.6-13.7-15c-3.3-6.4-4.9-13.6-4.9-21.5v-3.4
		c0-8.2,1.6-15.6,4.8-22.2c3.2-6.6,7.6-11.8,13.3-15.5s11.9-5.7,18.5-5.7c10.4,0,18.6,3.5,24.7,10.6c6.1,7.1,9.1,16.8,9.1,29.1v5.3
		h-61.1v1.8c0,9.7,2.8,17.8,8.3,24.2c5.6,6.5,12.6,9.7,21,9.7c5.1,0,9.5-0.9,13.4-2.8c3.9-1.8,7.4-4.8,10.6-8.9l5.9,4.5
		C399.2,161.3,389.1,166.4,375.8,166.4z M374.1,85.7c-7.1,0-13.1,2.6-18,7.8s-7.8,12.2-8.9,21h51.3v-1c-0.3-8.2-2.6-14.9-7-20.1
		C387.1,88.2,381.3,85.7,374.1,85.7z"/>
	<path class="st1" d="M435.9,156.8h55.6v8h-67.3v-7l51.9-70.4h-50.3v-8.2H488v7.1L435.9,156.8z"/>
	<path class="st1" d="M505.1,120.7c0-8.2,1.6-15.6,4.8-22.2c3.2-6.6,7.7-11.7,13.5-15.4c5.8-3.7,12.4-5.5,19.8-5.5
		c11.4,0,20.6,4,27.7,12c7.1,8,10.6,18.6,10.6,31.8v2c0,8.3-1.6,15.7-4.8,22.3c-3.2,6.6-7.7,11.7-13.5,15.3s-12.4,5.4-19.8,5.4
		c-11.3,0-20.6-4-27.7-12s-10.6-18.6-10.6-31.8V120.7z M514.6,123.3c0,10.2,2.7,18.6,7.9,25.2c5.3,6.6,12.2,9.8,20.8,9.8
		c8.5,0,15.5-3.3,20.8-9.8c5.3-6.6,7.9-15.2,7.9-26v-1.8c0-6.5-1.2-12.5-3.6-18c-2.4-5.4-5.8-9.6-10.2-12.6c-4.4-3-9.4-4.5-15-4.5
		c-8.4,0-15.3,3.3-20.7,9.9c-5.3,6.6-8,15.3-8,26L514.6,123.3L514.6,123.3z"/>
	<path class="st1" d="M652.3,143c0-4.7-1.9-8.5-5.7-11.3s-9.4-5.1-17.1-6.7s-13.5-3.5-17.7-5.5c-4.2-2.1-7.3-4.6-9.3-7.6
		s-3.1-6.6-3.1-10.9c0-6.8,2.8-12.3,8.5-16.7c5.6-4.4,12.9-6.6,21.7-6.6c9.5,0,17.2,2.4,23,7.1s8.7,10.9,8.7,18.5h-9.5
		c0-5-2.1-9.2-6.3-12.5c-4.2-3.3-9.5-5-15.9-5c-6.2,0-11.2,1.4-15,4.1c-3.8,2.8-5.7,6.4-5.7,10.8c0,4.3,1.6,7.6,4.7,9.9
		s8.9,4.5,17.2,6.5c8.3,2,14.5,4,18.7,6.2c4.1,2.2,7.2,4.9,9.2,8s3,6.9,3,11.3c0,7.2-2.9,13-8.7,17.3s-13.4,6.5-22.8,6.5
		c-10,0-18.1-2.4-24.2-7.2c-6.2-4.8-9.3-10.9-9.3-18.3h9.5c0.4,5.5,2.7,9.8,7,12.9c4.3,3.1,10,4.6,17.1,4.6c6.6,0,11.9-1.5,16-4.3
		C650.3,151.1,652.3,147.4,652.3,143z"/>
	<path class="st1" d="M180.8,171.2c-2.3-40.7-53.5-59.2-58.4-61.1c-0.2-0.1-0.2-0.3-0.1-0.5l52.8-53v-5.7c0-0.9-0.8-1.7-1.7-1.7
		H76.1V17.3l0,0V7.7l-35.9,7.5v5.4h2c0,0,8.8,0,8.8,8.8v19.7H23.2c-0.5,0-1,0.5-1,1v12.5h28.9c0,0,0,13.3,0,28.8v39.1
		c0,21.3,13.7,36.1,37.7,34.1c5.1-0.4,9.8-2.4,13.8-5c1.8-1.2,2.9-3.1,2.9-5.3v-6.7c-7.8,5.2-14.4,4.9-14.4,4.9
		c-15.2,0-14.9-19.3-14.9-19.3V62.6h70l-50.4,50.8c-0.1,6.7-0.2,11.9-0.2,12c0,0.2,0.1,0.3,0.3,0.3c46.2,7.8,58.7,37.7,58.7,46.4
		c0,0,5,42.3-37.3,45.2c0,0-27.7,1.2-32.6-9.9c-0.2-0.4,0-0.8,0.4-1c4.6-2.1,7.7-6.2,7.7-11.7c0-8.2-5-14.9-15.5-14.9
		c-8.5,0-15.5,6.7-15.5,14.9c0,0-4,35.6,55.4,34.6C185,228.1,180.8,171.2,180.8,171.2z"/>
</g>
</svg>
