<svg id="Layer_1" data-name="Layer 1" xmlns="http://www.w3.org/2000/svg" xmlns:xlink="http://www.w3.org/1999/xlink" viewBox="0 0 150 86.07"><defs><style>.cls-1{fill:url(#linear-gradient);}</style><linearGradient id="linear-gradient" x1="1.72" y1="43.03" x2="148.28" y2="43.03" gradientUnits="userSpaceOnUse"><stop offset="0.05" stop-color="#812780"/><stop offset="0.15" stop-color="#6a339a"/><stop offset="0.32" stop-color="#4943be"/><stop offset="0.49" stop-color="#3050db"/><stop offset="0.66" stop-color="#1e5aef"/><stop offset="0.83" stop-color="#135ffb"/><stop offset="1" stop-color="#0f61ff"/></linearGradient></defs><path class="cls-1" d="M144.55,36.12,94.11,3a1.46,1.46,0,0,0-2,.42L84.61,14.78a1.45,1.45,0,0,0,.41,2l23.26,15.28a1.46,1.46,0,0,1-.8,2.68H3.18a1.46,1.46,0,0,0-1.46,1.47V49.84A1.46,1.46,0,0,0,3.18,51.3h104.3a1.47,1.47,0,0,1,.8,2.69L85,69.27a1.45,1.45,0,0,0-.41,2l7.47,11.38a1.47,1.47,0,0,0,2,.42L144.55,50a8.27,8.27,0,0,0,0-13.83Z"/></svg>