<svg height='100px' width='100px'  fill="#000000" xmlns="http://www.w3.org/2000/svg" xmlns:xlink="http://www.w3.org/1999/xlink" version="1.1" x="0px" y="0px" viewBox="0 0 100 100" enable-background="new 0 0 100 100" xml:space="preserve"><g><path d="M77.58,0.328c-11.387,0-20.648,9.263-20.648,20.648c0,0.395,0.034,0.783,0.057,1.174l-8.974,2.1   c-2.624,0.609-5.021,1.941-6.934,3.854L2.358,66.823c-0.781,0.78-0.781,2.047,0,2.827c0.391,0.392,0.902,0.586,1.414,0.586   c0.512,0,1.023-0.194,1.414-0.586l38.722-38.719c1.383-1.382,3.115-2.346,5.014-2.786l8.676-2.03   c0.758,2.964,2.155,5.724,4.15,8.101l-0.066,0.066l-10.373,2.425c-1.076,0.251-1.744,1.327-1.492,2.402   c0.216,0.923,1.037,1.545,1.945,1.545c0.151,0,0.305-0.017,0.457-0.053l4.104-0.959L44.393,51.574   c-0.781,0.781-0.781,2.048,0,2.828c0.781,0.781,2.047,0.781,2.828,0l16.917-16.92c0.012-0.013,0.025-0.024,0.037-0.037l4.2-4.201   c1.646-1.646,4.321-1.642,5.97,0.006c0.795,0.793,1.233,1.851,1.234,2.976c0.001,1.129-0.438,2.19-1.236,2.989l-4.176,4.176   c-0.039,0.037-0.078,0.073-0.113,0.113L58.605,54.951c-0.305,0.305-0.502,0.699-0.564,1.127   C56.497,66.734,51.646,76.4,44.013,84.033l-12.22,12.225c-0.781,0.781-0.781,2.049,0,2.828c0.391,0.391,0.902,0.586,1.414,0.586   s1.024-0.195,1.414-0.586l12.22-12.225c2.735-2.735,5.132-5.717,7.187-8.896c0.006,0.008,0.011,0.016,0.017,0.021   c1.5,1.5,3.495,2.328,5.618,2.326c0.001,0,0.001,0,0.001,0c2.124,0,4.12-0.828,5.62-2.328l9.904-9.899   c1.5-1.503,2.326-3.5,2.326-5.624c0-2.126-0.826-4.122-2.328-5.621c-0.139-0.138-0.295-0.24-0.457-0.331l0.455-0.454   c1.506-1.506,2.332-3.506,2.33-5.633c-0.002-2.122-0.83-4.115-2.33-5.61c-0.131-0.13-0.272-0.247-0.412-0.368l2.4-2.4   c0.135-0.135,0.258-0.278,0.381-0.42c0.01,0,0.02,0.001,0.028,0.001c11.385-0.003,20.646-9.266,20.646-20.647   C98.227,9.591,88.963,0.328,77.58,0.328z M72.357,59.67c0.746,0.744,1.156,1.734,1.156,2.791s-0.412,2.05-1.156,2.795l-9.904,9.9   c-1.492,1.492-4.092,1.49-5.58,0.002c-0.251-0.251-0.555-0.412-0.872-0.502c1.134-2.071,2.126-4.217,2.976-6.424   c0.224,0.02,0.446,0.047,0.67,0.047c2.095,0,4.142-0.83,5.64-2.326l6.739-6.741C72.115,59.375,72.221,59.532,72.357,59.67z    M72.357,47.644c0.744,0.741,1.154,1.729,1.156,2.782c0,1.059-0.41,2.053-1.158,2.801l-9.897,9.897   c-0.588,0.587-1.327,0.938-2.115,1.074c0.661-2.243,1.188-4.539,1.558-6.884l10.021-10.021   C72.07,47.406,72.225,47.511,72.357,47.644z M79.473,37.508c0.065-0.422,0.107-0.85,0.107-1.285   c-0.002-2.194-0.857-4.256-2.408-5.803c-3.201-3.204-8.418-3.208-11.624-0.005l-0.959,0.959c-2.366-2.941-3.657-6.569-3.657-10.397   c0-9.18,7.469-16.648,16.648-16.648c9.178,0,16.646,7.469,16.646,16.648C94.229,29.513,87.764,36.562,79.473,37.508z"></path></g></svg>