<svg height='100px' width='100px'  fill="#000000" xmlns="http://www.w3.org/2000/svg" xmlns:xlink="http://www.w3.org/1999/xlink" version="1.1" x="0px" y="0px" viewBox="0 0 512 512" enable-background="new 0 0 512 512" xml:space="preserve"><g><path d="M444.152,321.629c-1.062,0-2.112,0.041-3.158,0.104v-20.137V194.337c3.693,0.888,7.383,1.352,11.036,1.353   c0.001,0,0.001,0,0.003,0c10.03,0,19.526-3.308,28.229-9.834c16.13-12.144,22.983-31.939,17.886-51.661   c-3.775-14.604-13.427-26.042-26.411-32.051c-6.479-16.545-20.783-27.873-38.639-30.417c-2.264-0.314-4.563-0.474-6.833-0.474   c-15.838,0-30.222,7.699-39.272,19.711H102.434c-11.288,0-20.471,9.181-20.471,20.465v3.016v79.916H35.625   c-12.509,0-22.687,10.165-22.688,22.66v180.144c0,12.493,10.178,22.657,22.688,22.657h96.691c12.514,0,22.694-10.164,22.694-22.657   v-34.502h61.323l-14.565,55.351h-47.001c-4.263,0-7.732,3.469-7.732,7.732v7.974c0,4.263,3.469,7.731,7.732,7.731h213.402   c4.28,0,7.762-3.469,7.762-7.731v-7.974c0-4.264-3.481-7.732-7.762-7.732h-46.973l-14.564-55.351h86.199   c-0.843,3.733-1.303,7.61-1.303,11.595c0,29.018,23.607,52.625,52.625,52.625c29.021,0,52.63-23.607,52.63-52.625   C496.782,345.238,473.173,321.629,444.152,321.629z M432.994,301.596c0,6.847-5.592,12.416-12.465,12.416H155.01v-11.791h262.022   c2.209,0,4-1.791,4-4V193.2c1.607-1.168,3.048-2.497,4.317-4.02c0.042-0.005,0.104-0.011,0.194-0.011   c1.455,0,4.191,1.175,6.891,2.335c0.187,0.079,0.373,0.146,0.56,0.223V301.596z M377.168,118.757   c-0.275,7.933,1.373,15.793,4.861,23.003c2.462,5.084,2.839,9.658,1.141,14.013c-1.365,3.584-4.156,7-8.295,10.151   c-1.422,1.082-1.953,2.975-1.303,4.639c0.604,1.544,2.091,2.543,3.724,2.543c0.126,0,0.253-0.006,0.38-0.018   c4.285-0.407,7.9-1.122,11.03-2.179c5.052-1.674,9.024-4.277,12.145-7.958c0.007-0.008,0.016-0.019,0.025-0.03   c0.041-0.005,0.103-0.01,0.188-0.01c0.921,0,2.422,0.5,3.734,1.003c0.521,1.374,1.098,2.73,1.746,4.059   c2.449,5.109,2.825,9.712,1.152,14.068c-1.378,3.568-4.17,6.971-8.301,10.114c-1.422,1.083-1.953,2.977-1.302,4.642   c0.604,1.543,2.091,2.542,3.723,2.542c0.128,0,0.256-0.006,0.385-0.019c4.23-0.407,7.782-1.106,10.831-2.125v97.026H155.01V217.02   c0-12.494-10.18-22.659-22.694-22.659h-23.147v-26.214h254.704c2.209,0,4-1.791,4-4s-1.791-4-4-4H109.169v-41.39H377.168z    M490.401,136.197c4.272,16.528-1.457,33.107-14.946,43.263c-7.28,5.461-15.16,8.229-23.422,8.229c-0.001,0-0.002,0-0.003,0   c-5.396,0-10.935-1.193-16.492-3.558c-3.545-1.523-6.894-2.961-9.994-2.961c-3.262,0-5.241,1.563-6.328,2.874   c-0.729,0.879-1.542,1.66-2.444,2.364c-1.359,0.089-2.523,0.849-3.177,1.959c-0.042,0.02-0.077,0.044-0.119,0.064   c0.662-1.147,1.225-2.32,1.687-3.515c2.473-6.437,2-13.301-1.417-20.426c-0.7-1.436-1.309-2.905-1.831-4.4   c-0.059-0.293-0.145-0.577-0.264-0.844c-0.725-2.214-1.251-4.464-1.582-6.742c-0.004-0.03-0.008-0.06-0.012-0.089   c-0.102-0.711-0.183-1.426-0.246-2.142c-0.004-0.046-0.01-0.092-0.014-0.138c-0.059-0.691-0.095-1.385-0.117-2.08   c-0.005-0.152-0.008-0.304-0.011-0.457c-0.015-0.654-0.017-1.31,0.002-1.967c0.001-0.043,0-0.087,0.001-0.131   c0.021-0.708,0.065-1.418,0.124-2.129c0.01-0.129,0.021-0.258,0.033-0.387c0.065-0.716,0.144-1.434,0.246-2.153   c2.817-20.127,20.277-35.306,40.612-35.306c1.924,0,3.873,0.137,5.818,0.412c0.06,0.008,0.117,0.021,0.177,0.03   C473.287,108.376,486.199,119.939,490.401,136.197z M426.265,79.253c1.903,0,3.832,0.134,5.718,0.396   c12.481,1.778,22.903,8.676,29.152,18.967c-1.043-0.217-2.095-0.396-3.152-0.546c-0.129-0.02-0.256-0.043-0.386-0.062   c-2.289-0.323-4.614-0.486-6.911-0.486c-24.302,0-45.167,18.141-48.532,42.185c-0.182,1.269-0.311,2.538-0.394,3.805   c-0.011,0.165-0.016,0.328-0.025,0.492c-0.024,0.453-0.049,0.906-0.061,1.358c-0.008,0.249-0.007,0.496-0.01,0.744   c-0.005,0.37-0.011,0.74-0.007,1.109c0.003,0.272,0.012,0.543,0.02,0.814c0.009,0.354,0.019,0.707,0.035,1.06   c0.013,0.252,0.03,0.504,0.046,0.757c0.025,0.385,0.052,0.77,0.085,1.153c0.018,0.197,0.038,0.394,0.059,0.591   c0.046,0.459,0.097,0.918,0.155,1.376c0.015,0.108,0.029,0.216,0.045,0.325c0.076,0.567,0.163,1.133,0.261,1.696   c-0.436-0.05-0.868-0.077-1.299-0.077c-3.297,0-5.283,1.595-6.316,2.868c-1.563,1.844-3.476,3.307-5.809,4.431   c0.67-1.163,1.235-2.351,1.696-3.56c2.505-6.423,2.032-13.279-1.404-20.376c-3.565-7.37-4.837-15.554-3.677-23.675   C388.397,94.449,405.899,79.253,426.265,79.253z M89.963,114.445c0-8.536,6.934-15.48,15.457-15.48h276.664   c-1.801,3.688-3.151,7.641-3.979,11.791H258.85c-0.003,0-0.007,0.001-0.01,0.001H144.883c-0.003,0-0.006-0.001-0.01-0.001h-39.705   c-2.209,0-4,1.791-4,4v79.605H89.963V114.445z M132.316,411.822H35.625c-8.099,0-14.688-6.575-14.688-14.657V217.021   c0.001-8.084,6.59-14.661,14.688-14.661h50.328c0.003,0,0.006,0.001,0.01,0.001h19.206h27.147c8.089,0,14.67,6.576,14.67,14.659   v141.642c0,0.081,0.019,0.157,0.024,0.237v38.265C147.01,405.247,140.418,411.822,132.316,411.822z M155.01,322.012h265.52   c4.693,0,9.009-1.601,12.465-4.261v5.052c-0.57,0.123-1.128,0.278-1.691,0.42c-0.14,0.035-0.279,0.067-0.418,0.104   c-16.161,4.185-29.352,15.714-35.613,31.337h-93.829h-79.921H155.01V322.012z M367.93,433.451H155.034v-7.438h49.817h113.261   c0.008,0.001,0.016,0.001,0.02,0h49.798V433.451z M312.924,418.014H210.04l14.565-55.351h73.754L312.924,418.014z M444.152,418.883   c-24.606,0-44.625-20.019-44.625-44.625c0-20.66,14.112-38.08,33.201-43.141c0.199-0.053,0.399-0.104,0.6-0.153   c0.596-0.149,1.194-0.292,1.8-0.417c0.142-0.029,0.287-0.051,0.43-0.079c2.782-0.545,5.654-0.839,8.595-0.839   c24.609,0,44.63,20.021,44.63,44.629C488.782,398.864,468.762,418.883,444.152,418.883z"></path><path d="M446.664,367.969v-13.296c2.217,0.976,3.578,2.759,4.112,5.47l8.666-1.127c-0.609-3.427-1.972-6.138-4.118-8.18   c-2.148-2.042-5.034-3.273-8.66-3.686v-3.367h-4.965v3.367c-3.884,0.365-6.983,1.843-9.306,4.354   c-2.353,2.553-3.525,5.668-3.525,9.406c0,3.679,1.02,6.799,3.114,9.357c2.049,2.559,5.293,4.496,9.717,5.774v14.217   c-1.197-0.563-2.299-1.532-3.32-2.808c-0.997-1.331-1.691-2.915-2.048-4.705l-8.843,1.021c0.664,4.446,2.218,7.873,4.678,10.325   c2.452,2.406,5.649,3.89,9.533,4.354v6.289h4.965v-6.35c4.448-0.716,7.921-2.451,10.427-5.263s3.737-6.289,3.737-10.38   c0-3.684-0.975-6.7-2.969-9.047C455.888,371.337,452.133,369.448,446.664,367.969z M441.699,366.327   c-1.455-0.611-2.558-1.433-3.245-2.454c-0.745-1.066-1.072-2.194-1.072-3.374c0-1.332,0.38-2.505,1.149-3.632   c0.792-1.068,1.843-1.842,3.168-2.348V366.327z M450.853,388.363c-1.073,1.279-2.476,2.101-4.188,2.459h-0.001v-13.35   c2.063,0.617,3.549,1.432,4.447,2.56c0.892,1.073,1.35,2.405,1.35,3.883C452.46,385.652,451.926,387.143,450.853,388.363z"></path><path d="M330.563,250.145H191.637c-2.209,0-4,1.791-4,4s1.791,4,4,4h138.925c2.209,0,4-1.791,4-4S332.771,250.145,330.563,250.145z   "></path><path d="M330.563,270.957H191.637c-2.209,0-4,1.791-4,4s1.791,4,4,4h138.925c2.209,0,4-1.791,4-4S332.771,270.957,330.563,270.957z   "></path><path d="M261.484,349.673c6.25,0,11.334-5.074,11.334-11.312s-5.084-11.312-11.334-11.312c-6.253,0-11.34,5.074-11.34,11.312   S255.231,349.673,261.484,349.673z M261.484,335.05c1.838,0,3.334,1.485,3.334,3.312s-1.496,3.312-3.334,3.312   c-1.842,0-3.34-1.485-3.34-3.312S259.643,335.05,261.484,335.05z"></path><path d="M140.22,231.938H27.751c-2.209,0-4,1.791-4,4v142.251c0,2.209,1.791,4,4,4H140.22c2.209,0,4-1.791,4-4V235.938   C144.22,233.729,142.429,231.938,140.22,231.938z M136.22,374.189H31.751V239.938H136.22V374.189z"></path><path d="M83.974,384.927c-6.408,0-11.622,5.238-11.622,11.677c0,6.404,5.214,11.614,11.622,11.614   c6.421,0,11.645-5.21,11.645-11.614C95.619,390.165,90.395,384.927,83.974,384.927z M83.974,400.218   c-1.997,0-3.622-1.621-3.622-3.614c0-2.027,1.625-3.677,3.622-3.677c2.01,0,3.645,1.649,3.645,3.677   C87.619,398.597,85.984,400.218,83.974,400.218z"></path><path d="M66.154,221.278h23.828c0.931,0,1.788-0.318,2.467-0.852c0.68,0.533,1.537,0.852,2.468,0.852h6.877c2.209,0,4-1.791,4-4   s-1.791-4-4-4h-6.877c-0.931,0-1.788,0.318-2.468,0.852c-0.68-0.533-1.536-0.852-2.467-0.852H66.154c-2.209,0-4,1.791-4,4   S63.945,221.278,66.154,221.278z"></path><path d="M83.974,351.057c24.242,0,43.964-19.734,43.964-43.992c0-0.001,0-0.001,0-0.002l0,0c0,0,0,0,0-0.001   c-0.001-24.226-19.723-43.933-43.964-43.933c-14.88,0-28.048,7.443-36,18.796c-0.042,0.05-0.075,0.109-0.115,0.161   c-4.924,7.098-7.82,15.704-7.821,24.979C40.039,331.322,59.748,351.057,83.974,351.057z M52.807,289.213   c3.846,1.09,7.727,1.966,11.637,2.636c-0.608,3.645-1,7.426-1.16,11.214H48.268C48.824,298.066,50.411,293.38,52.807,289.213z    M116.465,322.479c-4.227-1.179-8.413-2.141-12.561-2.877c0.378-2.806,0.633-5.671,0.754-8.54h15.053   C119.262,315.106,118.144,318.95,116.465,322.479z M79.974,317.814c-2.697,0.084-5.384,0.27-8.064,0.551   c-0.3-2.303-0.516-4.739-0.625-7.303h8.689V317.814z M79.974,325.822v14.909c-2.455-2.702-4.905-7.678-6.59-14.465   C75.574,326.052,77.77,325.896,79.974,325.822z M87.974,325.865c2.179,0.095,4.367,0.262,6.563,0.492   c-1.684,6.739-4.121,11.682-6.563,14.372V325.865z M87.974,317.846v-6.783h8.684c-0.111,2.596-0.33,5.063-0.636,7.392   C93.327,318.155,90.645,317.955,87.974,317.846z M119.709,303.063h-15.051c-0.163-3.835-0.561-7.663-1.182-11.35   c3.869-0.662,7.756-1.515,11.658-2.556C117.55,293.338,119.15,298.044,119.709,303.063z M96.658,303.063h-8.684v-9.692   c2.527-0.102,5.064-0.291,7.609-0.559C96.12,295.95,96.499,299.374,96.658,303.063z M87.974,285.418v-11.966   c2.089,2.298,4.174,6.24,5.788,11.544C91.825,285.188,89.895,285.333,87.974,285.418z M79.974,285.467   c-1.948-0.064-3.888-0.191-5.823-0.366c1.619-5.358,3.719-9.338,5.823-11.65V285.467z M79.974,293.405v9.657h-8.689   c0.157-3.649,0.53-7.039,1.058-10.15C74.875,293.16,77.419,293.329,79.974,293.405z M63.284,311.063   c0.119,2.829,0.368,5.653,0.737,8.422c-4.186,0.745-8.358,1.733-12.526,2.965c-1.669-3.521-2.782-7.354-3.229-11.387H63.284z    M55.902,329.496c3.177-0.869,6.359-1.572,9.55-2.138c1.118,4.785,2.643,9.191,4.565,12.872   C64.46,337.876,59.62,334.154,55.902,329.496z M97.923,340.238c1.908-3.652,3.424-8.02,4.54-12.763   c3.162,0.56,6.347,1.247,9.559,2.08C108.303,334.191,103.468,337.894,97.923,340.238z M109.931,282.23   c-2.744,0.662-5.467,1.225-8.171,1.688c-1.021-3.668-2.301-7.048-3.83-9.973C102.485,275.869,106.558,278.712,109.931,282.23z    M70.011,273.953c-1.546,2.959-2.836,6.386-3.863,10.103c-2.738-0.467-5.467-1.048-8.19-1.74   C61.338,278.763,65.43,275.893,70.011,273.953z"></path><path d="M467.342,158.637c5.546,0,10.06-4.5,10.062-10.032c0-5.531-4.514-10.031-10.062-10.031c-0.913,0-1.795,0.133-2.637,0.363   c-0.213,0.036-0.426,0.087-0.635,0.16c-3.064,1.058-5.363,3.51-6.299,6.501c-0.014,0.042-0.023,0.083-0.035,0.125   c-0.073,0.244-0.137,0.49-0.191,0.74c-0.02,0.092-0.037,0.186-0.055,0.278c-0.041,0.216-0.074,0.433-0.101,0.652   c-0.011,0.094-0.024,0.186-0.033,0.28c-0.028,0.308-0.047,0.617-0.047,0.93v0.206c0,0.127,0.018,0.251,0.029,0.376   C457.644,154.447,462.006,158.637,467.342,158.637z M467.342,150.637c-0.703,0-1.323-0.359-1.688-0.904   c0.741-0.999,1.454-2.037,2.131-3.109c0.925,0.2,1.619,1.011,1.619,1.98C469.403,149.725,468.479,150.637,467.342,150.637z"></path><path d="M447.226,138.573c-5.534,0-10.037,4.5-10.037,10.031c0,5.532,4.503,10.032,10.037,10.032c5.545,0,10.057-4.5,10.057-10.032   C457.282,143.073,452.771,138.573,447.226,138.573z M447.226,150.636c-1.123,0-2.037-0.912-2.037-2.032   c0-1.12,0.914-2.031,2.037-2.031c1.134,0,2.057,0.911,2.057,2.031C449.282,149.724,448.359,150.636,447.226,150.636z"></path><path d="M427.101,138.573c-5.545,0-10.056,4.5-10.056,10.031c0,5.532,4.511,10.032,10.056,10.032c5.549,0,10.063-4.5,10.063-10.032   C437.163,143.073,432.649,138.573,427.101,138.573z M427.101,150.636c-1.114,0-2.056-0.931-2.056-2.032   c0-1.101,0.941-2.031,2.056-2.031c1.138,0,2.063,0.911,2.063,2.031C429.163,149.724,428.238,150.636,427.101,150.636z"></path><path d="M131.577,148.721c6.25,0,11.334-5.075,11.334-11.312c0-6.269-5.084-11.369-11.334-11.369s-11.334,5.1-11.334,11.369   C120.243,143.646,125.328,148.721,131.577,148.721z M131.577,134.04c1.838,0,3.334,1.511,3.334,3.369   c0,1.826-1.496,3.312-3.334,3.312s-3.334-1.486-3.334-3.312C128.243,135.551,129.739,134.04,131.577,134.04z"></path><path d="M158.087,148.205c6.253,0,11.34-5.095,11.34-11.358c0-6.237-5.087-11.311-11.34-11.311   c-6.237,0-11.311,5.074-11.311,11.311C146.776,143.11,151.85,148.205,158.087,148.205z M158.087,133.536   c1.842,0,3.34,1.485,3.34,3.311c0,1.852-1.498,3.358-3.34,3.358c-1.826,0-3.311-1.506-3.311-3.358   C154.776,135.021,156.261,133.536,158.087,133.536z"></path></g></svg>