<svg height='100px' width='100px'  fill="#000000" xmlns="http://www.w3.org/2000/svg" data-name="Layer 1" viewBox="0 0 100 100" x="0px" y="0px"><title>Artboard 98</title><path d="M66.5,78h21V64h-21Zm2-12h17V76h-17Z"></path><path d="M50,51a7,7,0,0,1,0,.8l2,.27A7.79,7.79,0,0,0,52,51a8,8,0,0,0-.09-1.2l-2,.29A5.58,5.58,0,0,1,50,51Z"></path><path d="M45.75,56.74l.59,1.91a7.92,7.92,0,0,0,2.06-1L47.29,56A5.73,5.73,0,0,1,45.75,56.74Z"></path><path d="M48.5,47a5.9,5.9,0,0,1,.94,1.43l1.81-.85A7.72,7.72,0,0,0,50,45.72Z"></path><path d="M38.53,48.53l-1.82-.83a8,8,0,0,0-.63,2.19l2,.28A6.17,6.17,0,0,1,38.53,48.53Z"></path><path d="M48.57,54.88l1.53,1.3a8,8,0,0,0,1.21-1.93l-1.83-.81A6,6,0,0,1,48.57,54.88Z"></path><path d="M38,56.25a8.11,8.11,0,0,0,1.72,1.48l1.08-1.68a6,6,0,0,1-1.29-1.12Z"></path><path d="M40.74,46l-1.1-1.68a8.1,8.1,0,0,0-1.7,1.5l1.51,1.3A6,6,0,0,1,40.74,46Z"></path><path d="M38.06,51.87l-2,.29a7.94,7.94,0,0,0,.65,2.18l1.82-.84A5.89,5.89,0,0,1,38.06,51.87Z"></path><path d="M44,45V43a8.17,8.17,0,0,0-2.25.33l.58,1.92A6,6,0,0,1,44,45Z"></path><path d="M48.28,44.24a8.08,8.08,0,0,0-2.08-.93l-.55,1.92a6.07,6.07,0,0,1,1.56.7Z"></path><path d="M42.31,56.76l-.56,1.92A8.16,8.16,0,0,0,44,59h0l0-.53L44,57A6.05,6.05,0,0,1,42.31,56.76Z"></path><path d="M79,46.75V50H65V36h6v3.29l8,3.76,8-3.76v-8.5L79,27l-8,3.75V34H63V50H56a12,12,0,0,0-11-11V32.57l9.88-5.85L61.82,30l8-3.76v-8.5l-8-3.75-8,3.75V25L43,31.43v7.62A12,12,0,0,0,32,50.56l-8.85,8.85v11l-7,3.29v8.5l8,3.76,8-3.76v-8.5l-7-3.29V60.24l7-7A12,12,0,0,0,43,63v9H63v7H60v3a3,3,0,0,0,3,3H91a3,3,0,0,0,3-3V79H91V64a3,3,0,0,0-3-3H66a3,3,0,0,0-3,3v6H45V63A12,12,0,0,0,56,52H79v3.25L87,59l8-3.76v-8.5L87,43ZM73,32.84l5,2.34v5.19L73,38Zm7,7.53V34.92l5-2.12V38Zm3.39-9.06-4.7,2-4.16-2L79,29.24ZM55.82,19.77l5,2.34V27.3l-5-2.35Zm7,7.53V21.85l5-2.12V25Zm3.4-9.06-4.7,2-4.17-2,4.47-2.1Zm-42.35,58-4.17-2,4.47-2.1,4.4,2.06Zm-5.7-.47,5,2.35v5.19l-5-2.35Zm7,7.54V77.81l5-2.11v5.22ZM92,81v1a1,1,0,0,1-1,1H63a1,1,0,0,1-1-1V81H92ZM65,64a1,1,0,0,1,1-1H88a1,1,0,0,1,1,1V79H65ZM44,61A10,10,0,1,1,54,51,10,10,0,0,1,44,61ZM91.55,47.34,87,49.26l-4.33-2,4.31-2ZM81,48.64,86,51v5.34L81,54Zm7,7.69V51l5-2.11V54Z"></path><path d="M22.51,40.43a3.32,3.32,0,0,0,3.28-4l1.66.85a3.33,3.33,0,0,0,1.59.43h.11a3.37,3.37,0,0,0,3.3-2.29s0-.07,0-.11l4.86,2.91a3.34,3.34,0,0,0,3.41-5.75l-9.29-5.56C26.27,22,7.52,22,6.72,22h-1V34.15l3.18.18,12,5.65A3.24,3.24,0,0,0,22.51,40.43Zm8-5.62a1.38,1.38,0,0,1-1.4.91,1.49,1.49,0,0,1-.75-.19L24,33.27l4.56-.3L30.6,34.2A1.48,1.48,0,0,1,30.55,34.81ZM7.72,32.26V24c5.89.09,18.92,1,22.42,4.45l9.58,5.76a1.34,1.34,0,1,1-1.37,2.31l-9.06-5.42L29,30.93l-.31,0c-.77,0-5.16.33-9.3.63l-3.24.24,7.09,4.09a1.37,1.37,0,0,1,.63.82,1.35,1.35,0,0,1-.14,1,1.36,1.36,0,0,1-1.9.45L9.4,32.35Z"></path></svg>