<svg height='100px' width='100px'  fill="#000000" xmlns="http://www.w3.org/2000/svg" xmlns:xlink="http://www.w3.org/1999/xlink" version="1.1" x="0px" y="0px" viewBox="0 0 100 100" style="enable-background:new 0 0 100 100;" xml:space="preserve"><g><g><g><path d="M26.8,38.1c-0.2,0-0.4,0-0.6-0.1l-14.8-8.5c-0.3-0.2-0.6-0.6-0.6-1c0-0.4,0.2-0.8,0.6-1L26.2,19c0.3-0.2,0.8-0.2,1.1,0     l14.8,8.5c0.3,0.2,0.6,0.6,0.6,1c0,0.4-0.2,0.8-0.6,1L27.3,38C27.2,38.1,27,38.1,26.8,38.1z M14.2,28.5l12.6,7.3l12.6-7.3     l-12.6-7.3L14.2,28.5z"></path></g><g><path d="M26.8,55.4l-15.9-9.2V28.5c0-0.6,0.5-1.1,1.1-1.1c0.6,0,1.1,0.5,1.1,1.1v16.4l13.7,7.9l13.7-7.9V28.5     c0-0.6,0.5-1.1,1.1-1.1c0.6,0,1.1,0.5,1.1,1.1v17.7L26.8,55.4z"></path></g><g><path d="M26.8,49.5c-0.6,0-1.1-0.5-1.1-1.1V37c0-0.6,0.5-1.1,1.1-1.1c0.6,0,1.1,0.5,1.1,1.1v11.3C27.9,49,27.4,49.5,26.8,49.5z"></path></g></g><g><g><path d="M75.4,38.1c-0.2,0-0.4,0-0.6-0.1l-14.8-8.5c-0.3-0.2-0.6-0.6-0.6-1c0-0.4,0.2-0.8,0.6-1L74.9,19c0.3-0.2,0.8-0.2,1.1,0     l14.8,8.5c0.3,0.2,0.6,0.6,0.6,1c0,0.4-0.2,0.8-0.6,1L76,38C75.8,38.1,75.6,38.1,75.4,38.1z M62.8,28.5l12.6,7.3L88,28.5     l-12.6-7.3L62.8,28.5z"></path></g><g><path d="M75.4,55.4l-15.9-9.2V28.5c0-0.6,0.5-1.1,1.1-1.1c0.6,0,1.1,0.5,1.1,1.1v16.4l13.7,7.9l13.7-7.9V28.5     c0-0.6,0.5-1.1,1.1-1.1c0.6,0,1.1,0.5,1.1,1.1v17.7L75.4,55.4z"></path></g><g><path d="M75.4,49.5c-0.6,0-1.1-0.5-1.1-1.1V37c0-0.6,0.5-1.1,1.1-1.1c0.6,0,1.1,0.5,1.1,1.1v11.3C76.5,49,76,49.5,75.4,49.5z"></path></g></g><g><path d="M65.9,89c-0.4,0-0.7-0.2-0.9-0.5c-3.7-5.6-3.7-12.9,0-18.6c0.3-0.5,1-0.7,1.5-0.3c0.5,0.3,0.7,1,0.3,1.5    c-3.2,4.9-3.2,11.2,0,16.1c0.3,0.5,0.2,1.2-0.3,1.5C66.3,88.9,66.1,89,65.9,89z"></path></g><g><path d="M34.3,89c-0.2,0-0.4-0.1-0.6-0.2c-0.5-0.3-0.7-1-0.3-1.5c3.2-4.9,3.2-11.2,0-16.1c-0.3-0.5-0.2-1.2,0.3-1.5    c0.5-0.3,1.2-0.2,1.5,0.3c3.7,5.6,3.7,12.9,0,18.6C35,88.8,34.7,89,34.3,89z"></path></g><g><path d="M78.8,97.6H21.7c-0.3,0-0.7-0.2-0.9-0.4c-0.2-0.3-0.3-0.6-0.2-1c0-0.1,0.7-2.4,2.7-4.7c1.9-2.1,5.4-4.7,11.3-4.7h31.3    c5.9,0,9.4,2.5,11.3,4.7c2,2.3,2.7,4.6,2.7,4.7c0.1,0.3,0,0.7-0.2,1C79.5,97.4,79.2,97.6,78.8,97.6z M23.4,95.4h53.8    C76.1,93.1,73,89,65.9,89H34.6C27.5,89,24.5,93.1,23.4,95.4z"></path></g><g><path d="M98.9,71.6H1.1c-0.6,0-1.1-0.5-1.1-1.1v-67c0-0.6,0.5-1.1,1.1-1.1h97.8c0.6,0,1.1,0.5,1.1,1.1v67    C100,71.1,99.5,71.6,98.9,71.6z M2.2,69.4h95.5V4.6H2.2V69.4z"></path></g><g><path d="M51.1,38.1h-9.5c-0.6,0-1.1-0.5-1.1-1.1c0-0.6,0.5-1.1,1.1-1.1h9.5c0.6,0,1.1,0.5,1.1,1.1C52.2,37.6,51.7,38.1,51.1,38.1z    "></path></g><g><path d="M52.8,41.3c-0.3,0-0.6-0.1-0.8-0.3c-0.4-0.4-0.4-1.1,0-1.6l2.3-2.3l-2.4-2.4c-0.4-0.4-0.4-1.1,0-1.6    c0.4-0.4,1.1-0.4,1.6,0l3.2,3.2c0.4,0.4,0.4,1.1,0,1.6L53.6,41C53.4,41.2,53.1,41.3,52.8,41.3z"></path></g></g></svg>