<svg width="48" height="48" viewBox="0 0 48 48" fill="none" xmlns="http://www.w3.org/2000/svg">
<path fill-rule="evenodd" clip-rule="evenodd" d="M45.1443 31.71C41.997 40.3391 33.718 46.5 24 46.5C18.0566 46.5 12.6515 44.1956 8.62931 40.4315L17.3507 31.71H45.1443ZM45.6321 30.21H18.8507L33.6707 15.39H44.7938C45.8932 18.0422 46.5 20.9502 46.5 24C46.5 26.1541 46.1973 28.2375 45.6321 30.21ZM46.8571 31.339C47.5993 29.0258 48 26.5597 48 24C48 10.7452 37.2548 0 24 0C21.4403 0 18.9742 0.400723 16.661 1.14286H16.2901V1.26522C6.81732 4.47661 0 13.4422 0 24C0 37.2548 10.7452 48 24 48C34.5578 48 43.5233 41.1827 46.7348 31.71H46.8571V31.339ZM16.2901 2.85567C7.66096 6.00293 1.5 14.282 1.5 24C1.5 29.9435 3.80448 35.3487 7.56865 39.3709L16.2901 30.6493V2.85567ZM17.7901 2.36789V29.1493L32.6101 14.3293V3.20621C29.9579 2.10678 27.0498 1.5 24 1.5C21.8459 1.5 19.7625 1.8027 17.7901 2.36789ZM34.1101 3.89388C38.4193 6.06499 41.9351 9.58072 44.1062 13.89H34.1101V3.89388Z" fill="#000"/>
</svg>
