<svg xmlns="http://www.w3.org/2000/svg" xmlns:xlink="http://www.w3.org/1999/xlink" width="100" height="100" viewBox="0 0 100 100"><g transform="translate(50 50) scale(-0.69 0.69) rotate(0) translate(-50 -50)" style="fill:#000000"><svg fill="#000000" xmlns:dc="http://purl.org/dc/elements/1.1/" xmlns:cc="http://creativecommons.org/ns#" xmlns:rdf="http://www.w3.org/1999/02/22-rdf-syntax-ns#" xmlns:svg="http://www.w3.org/2000/svg" xmlns="http://www.w3.org/2000/svg" xmlns:sodipodi="http://sodipodi.sourceforge.net/DTD/sodipodi-0.dtd" xmlns:inkscape="http://www.inkscape.org/namespaces/inkscape" version="1.1" x="0px" y="0px" viewBox="0 0 100 100"><g transform="translate(0,-952.36218)"><path style="text-indent:0;text-transform:none;direction:ltr;block-progression:tb;baseline-shift:baseline;color:#000000;enable-background:accumulate;" d="m 26,15 c -1.123353,0 -2.14723,0.36664 -2.875,1.09375 C 22.39723,16.82086 22,17.8745 22,19 l 0,8 -6,0 c -0.523584,5.2e-5 -0.999948,0.476416 -1,1 l 0,17 c -2.053477,-2.8e-5 -4.149629,0 -6.1875,0 C 8.3540975,45.087467 7.9917766,45.5334 8,46 l 0,20 c 5.24e-5,0.523584 0.4764155,0.999948 1,1 l 25,0 C 40.076701,67 45,62.0767 45,56 45,49.9233 40.076707,45 34,45 l -17,0 0,-16 67,0 c 1.961453,0 3.728048,-0.790195 5,-2.09375 L 89,49 c -0.0075,0.528313 0.471635,1.014242 1,1.014242 0.528365,0 1.007472,-0.485929 1,-1.014242 l 0,-27 c 0,-0.03284 4.53e-4,-0.06102 0,-0.09375 0.0026,-0.04161 0.0026,-0.08339 0,-0.125 C 90.878805,18.026165 87.784085,15 84,15 z m 0,2 58,0 c 2.733068,0 4.916186,2.133209 5,4.84375 -0.0015,0.03123 -0.0015,0.06252 0,0.09375 2.67e-4,0.02162 0,0.04081 0,0.0625 0,2.7873 -2.212704,5 -5,5 l -60,0 0,-8 c 0,-0.68781 0.211394,-1.18044 0.53125,-1.5 C 24.851106,17.18044 25.313855,17 26,17 z m -16,30 24,0 c 5.003289,0 9,3.9967 9,9 0,5.0033 -3.996705,9 -9,9 l -24,0 z m 25,7 c -1.092706,0 -2,0.9073 -2,2 0,1.0927 0.907294,2 2,2 1.092706,0 2,-0.9073 2,-2 0,-1.0927 -0.907294,-2 -2,-2 z m 54.875,0.03125 c -0.480632,0.06058 -0.878755,0.515579 -0.875,1 L 89,56 c -0.0075,0.528313 0.471635,1.014242 1,1.014242 0.528365,0 1.007472,-0.485929 1,-1.014242 l 0,-0.96875 c 0.0044,-0.567964 -0.561468,-1.070951 -1.125,-1 z M 78,59 c -1.898458,0 -3.727156,0.3805 -5.375,1.0625 -0.533712,0.157866 -0.852432,0.820313 -0.642718,1.335862 0.209715,0.515549 0.900356,0.767408 1.392718,0.507888 C 74.78842,61.32135 76.379256,61 78,61 c 6.639257,0 12,5.3607 12,12 0,6.6393 -5.360743,12 -12,12 -6.639259,0 -12,-5.3607 -12,-12 0,-2.3914 0.657074,-4.61315 1.84375,-6.46875 0.286343,-0.441786 0.144911,-1.104282 -0.296875,-1.390625 C 67.105088,64.854282 66.442593,64.995714 66.15625,65.4375 64.760042,67.6207 64,70.2416 64,73 c 0,7.7201 6.279861,14 14,14 7.720139,0 14,-6.2799 14,-14 0,-7.7201 -6.279861,-14 -14,-14 z m -5.125,8.96875 c -0.757272,0.0737 -1.144058,1.193342 -0.59375,1.71875 l 7,7 c 0.400587,0.423314 1.185296,0.375271 1.53125,-0.09375 l 3,-4 C 84.12816,72.16807 84.03003,71.494248 83.606072,71.176279 83.182114,70.858311 82.507768,70.952776 82.1875,71.375 L 79.875,74.4375 73.71875,68.28125 C 73.506814,68.053528 73.184141,67.93402 72.875,67.96875 z m -57,3 C 15.383772,71.030302 14.980739,71.505306 15,72 l 0,12 c 5.2e-5,0.523584 0.476416,0.999948 1,1 l 46,0 c 0.528313,0.0075 1.014242,-0.471635 1.014242,-1 0,-0.528365 -0.485929,-1.007472 -1.014242,-1 l -45,0 0,-11 c 0.02261,-0.578237 -0.550908,-1.103962 -1.125,-1.03125 z" transform="translate(0,952.36218)" fill="#000000" fill-opacity="1" fill-rule="nonzero" stroke="none" marker="none" visibility="visible" display="inline" overflow="visible"></path></g></svg></g></svg>