<svg height='100px' width='100px'  fill="#000000" xmlns="http://www.w3.org/2000/svg" xmlns:xlink="http://www.w3.org/1999/xlink" version="1.1" x="0px" y="0px" viewBox="0 0 512 512" style="enable-background:new 0 0 512 512;" xml:space="preserve"><g><g><g><path d="M486,413H26c-3.866,0-7-3.134-7-7V26c0-3.866,3.134-7,7-7h460c3.866,0,7,3.134,7,7v380C493,409.866,489.866,413,486,413z      M33,399h446V33H33V399z"></path></g><g><path d="M296,493h-80c-3.866,0-7-3.134-7-7v-80c0-3.866,3.134-7,7-7h80c3.866,0,7,3.134,7,7v80C303,489.866,299.866,493,296,493z      M223,479h66v-66h-66V479z"></path></g><g><path d="M326,493H186c-3.866,0-7-3.134-7-7s3.134-7,7-7h140c3.866,0,7,3.134,7,7S329.866,493,326,493z"></path></g><g><path d="M486,373H26c-3.866,0-7-3.134-7-7s3.134-7,7-7h460c3.866,0,7,3.134,7,7S489.866,373,486,373z"></path></g><g><path d="M316,266.305c-38.766,0-70.304-31.539-70.304-70.305c0-38.766,31.539-70.304,70.304-70.304s70.304,31.539,70.304,70.304     C386.304,234.766,354.766,266.305,316,266.305z M316,139.696c-31.046,0-56.305,25.258-56.305,56.304s25.259,56.305,56.305,56.305     s56.304-25.258,56.304-56.305S347.046,139.696,316,139.696z"></path></g><g><path d="M333.332,333h-34.666c-3.866,0-7-3.134-7-7v-30.58c-10.166-2.473-19.798-6.466-28.753-11.92l-21.631,21.631     c-1.313,1.313-3.093,2.051-4.95,2.051s-3.637-0.737-4.95-2.05l-24.513-24.515c-2.734-2.733-2.734-7.165,0-9.899l21.631-21.631     c-5.455-8.957-9.448-18.588-11.92-28.753H186c-3.866,0-7-3.134-7-7v-34.667c0-3.866,3.134-7,7-7h30.582     c2.472-10.166,6.465-19.797,11.92-28.753l-21.631-21.631c-1.313-1.313-2.05-3.093-2.05-4.95s0.737-3.637,2.05-4.95l24.513-24.513     c2.733-2.733,7.166-2.733,9.899,0l21.631,21.63c8.956-5.456,18.589-9.448,28.753-11.92V66c0-3.866,3.134-7,7-7h34.666     c3.866,0,7,3.134,7,7v30.582c10.166,2.471,19.798,6.464,28.753,11.919l21.631-21.631c2.734-2.733,7.167-2.734,9.899,0     l24.514,24.512c1.313,1.313,2.051,3.093,2.051,4.95s-0.737,3.637-2.051,4.95l-21.631,21.631     c5.454,8.956,9.447,18.587,11.92,28.753H446c3.866,0,7,3.134,7,7v34.667c0,3.866-3.134,7-7,7h-30.582     c-2.473,10.166-6.466,19.798-11.92,28.753l21.631,21.63c1.313,1.313,2.051,3.094,2.051,4.95s-0.737,3.637-2.05,4.949     l-24.514,24.515c-1.313,1.313-3.094,2.051-4.95,2.051s-3.638-0.737-4.95-2.051l-21.631-21.632     c-8.955,5.454-18.587,9.448-28.753,11.92V326C340.332,329.866,337.198,333,333.332,333z M305.666,319h20.666v-29.243     c0-3.378,2.412-6.274,5.735-6.885c12.257-2.252,23.693-6.993,33.991-14.091c2.781-1.916,6.534-1.573,8.923,0.814l20.685,20.687     l14.614-14.615l-20.686-20.685c-2.389-2.388-2.731-6.141-0.814-8.922c7.098-10.297,11.839-21.734,14.091-33.992     c0.61-3.322,3.507-5.735,6.885-5.735H439v-20.667h-29.243c-3.378,0-6.274-2.413-6.885-5.735     c-2.252-12.258-6.993-23.694-14.091-33.992c-1.917-2.781-1.574-6.534,0.814-8.922l20.686-20.685l-14.614-14.613l-20.685,20.686     c-2.39,2.39-6.141,2.73-8.923,0.814c-10.298-7.098-21.734-11.838-33.991-14.09c-3.322-0.61-5.735-3.506-5.735-6.885V73h-20.666     v29.243c0,3.378-2.413,6.274-5.735,6.885c-12.255,2.251-23.691,6.991-33.991,14.09c-2.782,1.918-6.533,1.575-8.923-0.814     l-20.685-20.685l-14.614,14.614l20.686,20.685c2.388,2.388,2.73,6.141,0.814,8.922c-7.098,10.298-11.838,21.734-14.09,33.991     c-0.61,3.323-3.506,5.735-6.885,5.735H193v20.667h29.243c3.378,0,6.274,2.413,6.885,5.735     c2.251,12.255,6.992,23.691,14.09,33.992c1.917,2.781,1.574,6.534-0.814,8.922l-20.686,20.685l14.614,14.614l20.685-20.686     c2.391-2.39,6.145-2.729,8.923-0.814c10.298,7.098,21.733,11.839,33.991,14.091c3.323,0.61,5.735,3.507,5.735,6.885V319z"></path></g><rect x="126" y="105.026" width="18.539" height="18.54"></rect><rect x="96" y="105.026" width="18.539" height="18.54"></rect><g><path d="M88.609,143H75.043c-3.866,0-7-3.134-7-7v-14.174l-4.735-1.973c-2.26-0.941-3.863-2.995-4.229-5.416     s0.56-4.856,2.44-6.423l6.524-5.437V90.783c0-3.866,3.134-7,7-7h13.566c3.866,0,7,3.134,7,7s-3.134,7-7,7h-6.566v8.072     c0,2.078-0.923,4.047-2.519,5.377l-0.34,0.283c1.771,1.299,2.858,3.383,2.858,5.644V129h6.566c3.866,0,7,3.134,7,7     S92.475,143,88.609,143z"></path></g><g><path d="M169.565,143H156c-3.866,0-7-3.134-7-7s3.134-7,7-7h6.565v-11.841c0-2.261,1.087-4.344,2.858-5.644l-0.339-0.283     c-1.596-1.33-2.519-3.3-2.519-5.378v-8.072H156c-3.866,0-7-3.134-7-7s3.134-7,7-7h13.565c3.866,0,7,3.134,7,7v11.793l6.525,5.437     c1.881,1.567,2.806,4.003,2.44,6.424s-1.969,4.474-4.229,5.416l-4.736,1.974V136C176.565,139.866,173.431,143,169.565,143z"></path></g></g></g></svg>