<svg height='100px' width='100px'  fill="#000000" xmlns:dc="http://purl.org/dc/elements/1.1/" xmlns:cc="http://creativecommons.org/ns#" xmlns:rdf="http://www.w3.org/1999/02/22-rdf-syntax-ns#" xmlns:svg="http://www.w3.org/2000/svg" xmlns="http://www.w3.org/2000/svg" xmlns:sodipodi="http://sodipodi.sourceforge.net/DTD/sodipodi-0.dtd" xmlns:inkscape="http://www.inkscape.org/namespaces/inkscape" version="1.0" x="0px" y="0px" viewBox="0 0 100 100" xml:space="preserve"><title>light</title><path d="m 49.999971,2.56337 c -0.822784,0 -1.476793,0.6751 -1.476793,1.47679 l 0,15.46389 c 0,0.82278 0.654009,1.47679 1.476793,1.47679 0.822785,0 1.476794,-0.65401 1.476794,-1.47679 l 0,-15.46389 c 0,-0.82278 -0.654009,-1.47679 -1.476794,-1.47679 z m -24.750297,9.83114 c -0.236878,0.003 -0.475095,0.0647 -0.692659,0.18995 -0.717298,0.40085 -0.970711,1.30802 -0.569867,2.00422 0,0 3.29e-4,0.021 0.02143,0.021 l 6.033673,10.48507 c 0.253166,0.48523 0.738397,0.75941 1.265823,0.75941 0.822785,0 1.476793,-0.65401 1.476793,-1.4768 0,-0.25316 -0.06337,-0.50633 -0.189955,-0.73839 L 26.561236,13.15392 c -0.27558,-0.49314 -0.79043,-0.76672 -1.311561,-0.75941 z m 49.870616,0.0371 c -0.523171,-0.0135 -1.032602,0.2502 -1.322686,0.74334 L 67.76352,23.66043 c -0.400844,0.69621 -0.168777,1.6033 0.527426,2.02524 0.696202,0.40084 1.603704,0.16877 2.025645,-0.52743 l 0,-0.021 6.054688,-10.5065 c 0.400844,-0.6962 0.168859,-1.60337 -0.548441,-2.00422 -0.224156,-0.12526 -0.464743,-0.18874 -0.702548,-0.1949 z m -25.141334,11.4843 c -5.89135,0.003 -11.782947,2.24444 -16.287166,6.72756 -4.367089,4.2827 -6.835197,10.12659 -6.8141,16.24473 0,5.18987 2.594774,9.78903 4.894351,13.81856 1.097046,1.91984 2.109704,3.73426 2.63713,5.25325 0.949368,2.82701 1.645652,5.73823 2.08869,8.69182 0.06329,4.11392 3.396707,7.59494 7.362952,7.59494 l 12.257302,0 c 3.945148,0 7.299661,-3.48102 7.362952,-7.59494 0.443038,-2.95359 1.139323,-5.8438 2.08869,-8.6708 0.527426,-1.54009 1.539755,-3.3335 2.615704,-5.23224 2.299578,-4.07173 4.915777,-8.69206 4.915777,-13.90303 0,-6.09705 -2.44734,-11.9617 -6.835525,-16.2233 -4.50422,-4.47258 -10.395406,-6.70919 -16.286756,-6.70655 z m 0.0025,2.93545 c 5.139768,-0.005 10.28242,1.94587 14.217019,5.85938 3.797468,3.71308 5.949202,8.79755 5.949202,14.114 0,4.45148 -2.405063,8.713 -4.535865,12.46828 -1.13924,2.02531 -2.21519,3.92438 -2.848101,5.71762 -1.012658,3.03798 -1.751055,6.13916 -2.21519,9.30372 0,0.0844 -0.02102,0.1476 -0.02102,0.23198 0,2.51055 -2.067592,4.74684 -4.409365,4.74684 l -12.236286,0 c -2.341773,0 -4.409365,-2.23629 -4.409365,-4.74684 0,-0.0633 8.2e-5,-0.14767 -0.02102,-0.21097 -0.464135,-3.16455 -1.223547,-6.28683 -2.236205,-9.30371 -0.611814,-1.79325 -1.708778,-3.73426 -2.869116,-5.78067 -2.109705,-3.73418 -4.51485,-7.95351 -4.51485,-12.36279 0,-5.31646 2.151734,-10.42186 5.949202,-14.15604 3.924051,-3.9135 9.061182,-5.87552 14.20095,-5.8808 z M 7.6402605,30.53922 c -0.522548,-0.0218 -1.042078,0.23751 -1.332163,0.71615 -0.421941,0.6962 -0.189791,1.60329 0.506412,2.02523 l 0.02102,0.021 10.4430365,6.05469 c 0.696203,0.40084 1.603294,0.16877 2.025234,-0.52743 0.421941,-0.6962 0.168777,-1.60329 -0.527426,-2.02523 L 8.3333365,30.74894 C 8.1157735,30.61708 7.8777875,30.54912 7.6402655,30.5392 Z m 85.2885205,0.014 c -0.23688,0.007 -0.475089,0.0705 -0.69266,0.19573 l -10.44304,6.05469 c -0.6962,0.40084 -0.949282,1.30793 -0.54844,2.02523 0.274271,0.44304 0.759411,0.71738 1.28684,0.71738 0.25317,0 0.506331,-0.0634 0.7384,-0.18995 l 10.44304,-6.05469 c 0.6962,-0.42194 0.92827,-1.32903 0.52742,-2.02524 -0.27558,-0.47863 -0.79043,-0.7381 -1.31156,-0.72315 z M 1.4767915,55.45351 c -0.822785,0 -1.476793,0.65401 -1.476793,1.47679 0,0.82279 0.654008,1.47679 1.476793,1.47679 l 15.4008435,0 c 0.822785,0 1.476793,-0.654 1.476793,-1.47679 0,-0.82278 -0.654008,-1.47679 -1.476793,-1.47679 l -15.4008435,0 z m 81.6455705,0 c -0.82278,0 -1.47679,0.65401 -1.47679,1.47679 0,0.82279 0.65401,1.47679 1.47679,1.47679 l 15.40085,0 c 0.82278,0 1.476788,-0.654 1.476788,-1.47679 0,-0.82278 -0.654008,-1.47679 -1.476788,-1.47679 l -15.40085,0 z M 40.084386,84.35646 c -0.822785,0 -1.476793,0.65401 -1.476793,1.47679 0,0.82279 0.654008,1.4768 1.476793,1.4768 l 19.831224,0 c 0.822785,0 1.476793,-0.65401 1.476793,-1.4768 0,-0.82278 -0.654008,-1.47679 -1.476793,-1.47679 l -19.831224,0 z m 2.109705,5.06329 c -0.822785,0 -1.476793,0.65401 -1.476793,1.4768 0,0.82278 0.654008,1.47679 1.476793,1.47679 l 15.611814,0 c 0.822785,0 1.476793,-0.65401 1.476793,-1.47679 0,-0.82279 -0.654008,-1.4768 -1.476793,-1.4768 l -15.611814,0 z m 2.109704,5.06329 c -0.822784,0 -1.476793,0.65401 -1.476793,1.4768 0,0.82278 0.654009,1.47679 1.476793,1.47679 l 11.392406,0 c 0.822784,0 1.476794,-0.65401 1.476794,-1.47679 0,-0.82279 -0.65401,-1.4768 -1.476794,-1.4768 l -11.392406,0 z"></path></svg>