<svg width="40" height="44" xmlns="http://www.w3.org/2000/svg"><g fill="none" fill-rule="evenodd"><path fill="#FFF" opacity=".1" d="M20 0l20 19.8-20 19.798L0 19.8z"/><path fill="#2C7DF7" opacity=".4" d="M4.486 4.07h15.827l15.949 15.714V43.67H4.486z"/><g fill="#FFF"><path opacity=".75" d="M24.678 16.447l1.586-1.586 1.57 1.57-1.587 1.586z"/><path d="M26.248 18.017l1.586-1.586 1.57 1.57-1.586 1.586z"/><path d="M27.818 19.587l1.586-1.586 1.57 1.57-1.586 1.586z"/><path opacity=".8" d="M26.232 21.173l1.586-1.586 1.57 1.57-1.587 1.586z"/><path opacity=".65" d="M24.646 22.76l1.586-1.587 1.57 1.57-1.587 1.586z"/><path opacity=".45" d="M23.06 24.345l1.586-1.586 1.57 1.57-1.587 1.586z"/><path opacity=".5" d="M23.108 14.877l1.586-1.586 1.57 1.57-1.586 1.586z"/></g><g fill="#FFF"><path opacity=".75" d="M20.106 17.506l1.586 1.586-1.57 1.57-1.586-1.586z"/><path opacity=".6" d="M18.535 19.076l1.586 1.586-1.57 1.57-1.586-1.586z"/><path opacity=".6" d="M16.965 20.646l1.586 1.586-1.57 1.57-1.585-1.586zM21.675 15.936l1.586 1.586-1.57 1.57-1.585-1.586z"/></g><g fill="#FFF"><path opacity=".75" d="M14.179 23.5l-1.586 1.586-1.57-1.57 1.586-1.586z"/><path d="M12.609 21.93l-1.587 1.585-1.57-1.57 1.587-1.585z"/><path d="M11.039 20.36l-1.586 1.586-1.57-1.57 1.586-1.586z"/><path opacity=".8" d="M12.625 18.774l-1.586 1.586-1.57-1.57 1.586-1.586z"/><path opacity=".65" d="M14.21 17.188l-1.585 1.586-1.57-1.57 1.586-1.586z"/><path opacity=".45" d="M15.797 15.602l-1.586 1.586-1.57-1.57 1.586-1.586z"/><path opacity=".5" d="M15.749 25.07l-1.586 1.586-1.57-1.57 1.586-1.586z"/></g></g></svg>