<svg height='100px' width='100px'  fill="#000000" xmlns="http://www.w3.org/2000/svg" data-name="Layer 1" viewBox="0 0 64 64" x="0px" y="0px"><title>Future-fore- front- head- next- anterior</title><path d="M51.868,47.02,44.1,33.886A29.153,29.153,0,0,0,46,24.729C46,13.3,39.72,4,32,4S18,13.3,18,24.729a29.153,29.153,0,0,0,1.9,9.157L12.132,47.02a.939.939,0,0,0,0,.965,1.008,1.008,0,0,0,.865.482H26.739c2.022,3.582,3.732,6.239,4.261,7.048V59.1h2V55.515c.529-.809,2.239-3.466,4.261-7.048H51a1.008,1.008,0,0,0,.865-.482A.939.939,0,0,0,51.868,47.02Zm-26.385-.487H14.724l6.065-10.26c1.1,2.778,2.419,5.555,3.742,8.112ZM31,43.633v8.15c-1.266-2.076-3.025-5.087-4.767-8.466l-4.314-9.731c-.008-.019-.023-.033-.032-.051A27.689,27.689,0,0,1,20,24.729c0-10.364,5.383-18.8,12-18.8s12,8.432,12,18.8a27.7,27.7,0,0,1-1.889,8.809c-.009.017-.022.03-.03.048L37.772,43.3c-1.744,3.385-3.5,6.4-4.772,8.479v-8.15Zm7.517,2.9.952-2.148c1.323-2.557,2.639-5.334,3.742-8.112l6.065,10.26Z"></path><rect x="26" y="55.233" width="2" height="5.8"></rect><path d="M12,57.167v.966a4,4,0,0,0,8,0V53.3H18v4.833a2,2,0,0,1-4,0v-.966Z"></path><rect x="36" y="55.233" width="2" height="5.8"></rect><path d="M44,53.3v4.833a4,4,0,0,0,8,0v-.966H50v.966a2,2,0,0,1-4,0V53.3Z"></path><path d="M34,39.767A1.918,1.918,0,0,0,33,38.1V32.033h3v2.2A1.916,1.916,0,0,0,35,35.9a2,2,0,0,0,4,0,1.916,1.916,0,0,0-1-1.664V31.067a.983.983,0,0,0-1-.967H33V28.11a8.824,8.824,0,0,0,8-8.643,9.005,9.005,0,0,0-18,0,8.824,8.824,0,0,0,8,8.643V30.1H27a.983.983,0,0,0-1,.967v3.169A1.916,1.916,0,0,0,25,35.9a2,2,0,0,0,4,0,1.916,1.916,0,0,0-1-1.664v-2.2h3V38.1a1.918,1.918,0,0,0-1,1.665,2,2,0,0,0,4,0Zm-3.576-16.49c.521.036,1.049.056,1.576.056s1.055-.02,1.576-.056c-.465,1.927-1.2,2.956-1.576,2.956S30.889,25.2,30.424,23.277ZM25,19.467c0-.368,1.058-1.081,3.059-1.531-.038.506-.059,1.019-.059,1.531s.021,1.024.059,1.53C26.058,20.547,25,19.834,25,19.467Zm5,0a18.351,18.351,0,0,1,.1-1.845c.588-.055,1.218-.089,1.9-.089s1.314.034,1.9.089a17.407,17.407,0,0,1,0,3.689c-.588.055-1.218.089-1.9.089s-1.314-.034-1.9-.089A18.347,18.347,0,0,1,30,19.467ZM32,12.7c.379,0,1.111,1.03,1.576,2.957C33.055,15.62,32.527,15.6,32,15.6s-1.055.02-1.576.057C30.889,13.73,31.621,12.7,32,12.7Zm7,6.767c0,.367-1.058,1.08-3.059,1.53.038-.506.059-1.018.059-1.53s-.021-1.025-.059-1.531C37.942,18.386,39,19.1,39,19.467Zm-4.1,6.149a12.244,12.244,0,0,0,.77-2.6,13.327,13.327,0,0,0,2.687-.745A6.919,6.919,0,0,1,34.9,25.616Zm3.457-8.956a13.393,13.393,0,0,0-2.687-.745,12.244,12.244,0,0,0-.77-2.6A6.923,6.923,0,0,1,38.361,16.66ZM29.1,13.317a12.244,12.244,0,0,0-.77,2.6,13.393,13.393,0,0,0-2.687.745A6.923,6.923,0,0,1,29.1,13.317Zm-3.457,8.956a13.327,13.327,0,0,0,2.687.745,12.244,12.244,0,0,0,.77,2.6A6.919,6.919,0,0,1,25.639,22.273Z"></path></svg>