<svg height='100px' width='100px'  fill="#000000" xmlns="http://www.w3.org/2000/svg" xmlns:xlink="http://www.w3.org/1999/xlink" version="1.1" x="0px" y="0px" viewBox="0 0 64 64" style="enable-background:new 0 0 64 64;" xml:space="preserve"><path d="M50,26c6.617,0,12-5.383,12-12S56.617,2,50,2c-4.805,0-8.948,2.845-10.863,6.934L35.933,7.75C35.971,7.502,36,7.252,36,7  c0-2.757-2.243-5-5-5s-5,2.243-5,5s2.243,5,5,5c1.746,0,3.34-0.929,4.237-2.374l3.207,1.184C38.162,11.828,38,12.894,38,14  c0,1.31,0.218,2.568,0.608,3.749L27.61,22.41C25.596,18.603,21.599,16,17,16c-1.49,0-2.912,0.286-4.23,0.784l-2.765-5.811  C11.236,10.048,12,8.582,12,7c0-2.757-2.243-5-5-5S2,4.243,2,7s2.243,5,5,5c0.411,0,0.817-0.055,1.206-0.153l2.759,5.798  C7.404,19.728,5,23.584,5,28c0,4.148,2.116,7.809,5.324,9.965l-1.822,3.275C8.021,41.088,7.517,41,7,41c-2.757,0-5,2.243-5,5  s2.243,5,5,5s5-2.243,5-5c0-1.476-0.662-2.851-1.752-3.783l1.828-3.286C13.58,39.612,15.244,40,17,40  c2.744,0,5.268-0.936,7.292-2.492l3.936,4.33C26.232,43.982,25,46.846,25,50c0,0.612,0.061,1.208,0.149,1.795l-4.625,1.097  C19.719,51.153,17.982,50,16,50c-2.757,0-5,2.243-5,5s2.243,5,5,5s5-2.243,5-5c0-0.054-0.008-0.109-0.01-0.163l4.615-1.095  C27.182,58.531,31.69,62,37,62c6.617,0,12-5.383,12-12c0-2.052-0.519-3.984-1.431-5.674l5.877-3.821C54.373,41.45,55.64,42,57,42  c2.757,0,5-2.243,5-5s-2.243-5-5-5s-5,2.243-5,5c0,0.629,0.131,1.245,0.36,1.825l-5.891,3.83c-1.178-1.515-2.708-2.738-4.469-3.55  l4.881-13.531C47.877,25.843,48.92,26,50,26z M50,4c5.514,0,10,4.486,10,10c0,2.5-0.929,4.783-2.451,6.538  c-0.694-1.847-2.147-3.32-3.979-4.045C54.453,15.591,55,14.361,55,13c0-2.761-2.239-5-5-5s-5,2.239-5,5  c0,1.361,0.547,2.591,1.429,3.493c-1.831,0.725-3.284,2.198-3.979,4.045C40.929,18.783,40,16.5,40,14C40,8.486,44.486,4,50,4z M7,28  c0-5.514,4.486-10,10-10s10,4.486,10,10c0,2.5-0.929,4.783-2.451,6.538c-0.694-1.847-2.147-3.32-3.979-4.045  C21.453,29.591,22,28.361,22,27c0-2.761-2.239-5-5-5s-5,2.239-5,5c0,1.361,0.547,2.591,1.429,3.493  c-1.831,0.725-3.284,2.198-3.979,4.045C7.929,32.783,7,30.5,7,28z M47,50c0,2.5-0.929,4.783-2.451,6.538  c-0.694-1.847-2.147-3.32-3.979-4.045C41.453,51.591,42,50.361,42,49c0-2.761-2.239-5-5-5s-5,2.239-5,5  c0,1.361,0.547,2.591,1.429,3.493c-1.831,0.725-3.284,2.198-3.979,4.045C27.929,54.783,27,52.5,27,50c0-5.514,4.486-10,10-10  S47,44.486,47,50z M40.119,38.426C39.123,38.157,38.08,38,37,38c-2.744,0-5.268,0.936-7.292,2.492l-3.936-4.33  C27.768,34.018,29,31.154,29,28c0-1.31-0.218-2.568-0.608-3.749L39.39,19.59c1.232,2.329,3.209,4.198,5.611,5.305L40.119,38.426z"></path></svg>