<svg height='100px' width='100px'  fill="#000000" xmlns="http://www.w3.org/2000/svg" data-name="Layer 1" viewBox="0 0 100 100" x="0px" y="0px"><title>Artboard 67</title><polygon points="78.79 66.15 79.64 65 77.15 65 71.65 72.81 68.68 69.21 67.14 70.48 71.77 76.11 78.79 66.15"></polygon><rect x="49" y="39" width="12" height="2"></rect><rect x="49" y="46" width="12" height="2"></rect><rect x="49" y="53" width="12" height="2"></rect><rect x="41" y="38" width="4" height="4"></rect><rect x="41" y="45" width="4" height="4"></rect><rect x="41" y="52" width="4" height="4"></rect><path d="M85,57.67V55.24A11.25,11.25,0,0,0,73.76,44h-.52A11.15,11.15,0,0,0,66,46.66V26H36V48H31V39a7,7,0,0,0-7-7H19.86a4,4,0,1,0,0,2H24a5,5,0,0,1,5,5v9H19.86a4,4,0,1,0,0,2H29V60a5,5,0,0,1-5,5H20a4.06,4.06,0,1,0-.56,2H24a7,7,0,0,0,7-7V50h5V69H59v9.67A4.3,4.3,0,0,0,63.25,83H68V81H63.25A2.3,2.3,0,0,1,61,78.67V61.33A2.3,2.3,0,0,1,63.25,59h19.5A2.3,2.3,0,0,1,85,61.33V65h2V61.33A4.34,4.34,0,0,0,85,57.67ZM16,35a2,2,0,1,1,2-2A2,2,0,0,1,16,35Zm0,16a2,2,0,1,1,2-2A2,2,0,0,1,16,51Zm0,16a2,2,0,1,1,2-2A2,2,0,0,1,16,67ZM38,28H64v3H38ZM59,61.33V67H38V33H64V48.86a11.13,11.13,0,0,0-2,6.38v2A4.32,4.32,0,0,0,59,61.33ZM78,57H69V55.09A4.2,4.2,0,0,1,73.29,51h.42A4.2,4.2,0,0,1,78,55.09Zm2,0V55.09A6.2,6.2,0,0,0,73.71,49h-.42A6.2,6.2,0,0,0,67,55.09V57H64V55.24A9.26,9.26,0,0,1,73.24,46h.52A9.26,9.26,0,0,1,83,55.24V57a1.9,1.9,0,0,0-.25,0Z"></path><path d="M85,78.65A2.31,2.31,0,0,1,82.72,81H76v2h6.72A4.32,4.32,0,0,0,87,78.65V74H85Z"></path><rect x="85" y="68" width="2" height="4"></rect><rect x="70" y="81" width="4" height="2"></rect></svg>