<svg xmlns="http://www.w3.org/2000/svg" width="32" height="32" viewBox="0 0 32 32" fill="white">
  <path d="M16.5 9h-4c1.1 0 2 .9 2 2s-.9 2-2 2c-1 0-2-.9-2-1.9V21c0 1.1.9 2 2 2s2-.9 2-2v-2h1.1l-.8-1.1c-.6-.9-.4-2.2.5-2.8.9-.6 2.2-.4 2.8.5l1.6 2.3c1.1-1 1.7-2.3 1.7-3.8.1-2.8-2.2-5-4.9-5.1z"/>
  <g transform="translate(8.667 6.311)" opacity=".5">
    <circle cx="3.8" cy="4.7" r="2"/>
    <path d="M12.4 13.5c.6.9.4 2.2-.5 2.8-.9.6-2.2.4-2.8-.5l-3-4.3c-.6-.9-.4-2.2.5-2.8.9-.6 2.2-.4 2.8.5.1.1 3 4.3 3 4.3z"/>
  </g>
</svg>
