<svg xmlns="http://www.w3.org/2000/svg" width="33" height="33" viewBox="0 0 33 33" >
  <style>
    .st0{opacity:.5;enable-background:new}.st1{fill-opacity:0}
  </style>
  <path class="st0" d="M25.2 17.6l-1-3-1.9-5.9c-.1-.2-.2-.3-.4-.2-.1 0-.2.1-.2.2l-1.9 5.9h-6.4l-1.9-5.9c-.1-.2-.2-.3-.4-.2-.1 0-.2.1-.2.2L9 14.6l-1 3c-.1.3 0 .6.2.7l8.4 6.1 8.4-6.1c.1-.1.2-.4.2-.7"/>
  <path d="M16.5 24.5l3.2-9.8h-6.4l3.2 9.8z"/>
  <path class="st0" d="M16.5 24.5l-3.2-9.8H8.8l7.7 9.8z"/>
  <path class="st1" d="M8.8 14.7l-1 3c-.1.3 0 .6.2.7l8.4 6.1-7.6-9.8z"/>
  <path d="M8.8 14.7h4.5l-1.9-5.9c-.1-.2-.2-.3-.4-.2-.1 0-.2.1-.2.2l-2 5.9z"/>
  <path class="st0" d="M16.5 24.5l3.2-9.8h4.5l-7.7 9.8z"/>
  <path class="st1" d="M24.2 14.7l1 3c.1.3 0 .6-.2.7l-8.4 6.1 7.6-9.8z"/>
  <path d="M24.2 14.7h-4.5l1.9-5.9c.1-.2.2-.3.4-.2.1 0 .2.1.2.2.1-.1 2 5.9 2 5.9z"/>
</svg>
