<svg xmlns="http://www.w3.org/2000/svg" width="32" height="32" viewBox="0 0 32 32" fill="white">
  <path d="M24.9 16c0-1.1-.8-1.9-1.9-1.9-.5 0-1 .2-1.3.6-1.3-.9-3.2-1.6-5.2-1.7l.9-4.2 2.9.6c0 .8.7 1.3 1.4 1.3s1.4-.6 1.4-1.4c0-.8-.6-1.4-1.4-1.4-.6 0-1 .3-1.3.8L17.1 8c-.1 0-.2 0-.3.1-.1.1-.1.1-.2.3l-1 4.7c-2.1.1-4 .7-5.3 1.7-.3-.5-.8-.8-1.3-.8-1.1 0-1.9.8-1.9 1.9 0 .8.5 1.5 1.2 1.8 0 .2-.1.4-.1.6 0 3 3.5 5.5 7.8 5.5s7.8-2.4 7.8-5.5c0-.2 0-.4-.1-.6.8-.2 1.2-.9 1.2-1.7zm-13.4 1.4c0-.8.6-1.4 1.4-1.4.8 0 1.4.6 1.4 1.4 0 .8-.6 1.4-1.4 1.4-.9 0-1.4-.6-1.4-1.4zm7.8 3.7c-.9.9-2.8 1-3.3 1s-2.4-.1-3.3-1c-.2-.2-.2-.3 0-.5s.3-.2.5 0c.6.6 1.9.8 2.8.8s2.2-.3 2.8-.8c.2-.2.3-.2.5 0 .2.1.2.3 0 .5zm-.3-2.4c-.8 0-1.4-.6-1.4-1.4 0-.8.6-1.4 1.4-1.4.8 0 1.4.6 1.4 1.4.1.9-.5 1.4-1.4 1.4z"/>
</svg>
