<?xml version="1.0" encoding="utf-8"?>
<!-- Generator: Adobe Illustrator 21.1.0, SVG Export Plug-In . SVG Version: 6.00 Build 0)  -->
<svg version="1.1" id="Layer_1" xmlns="http://www.w3.org/2000/svg" xmlns:xlink="http://www.w3.org/1999/xlink" x="0px" y="0px"
	 viewBox="0 0 171 171" style="enable-background:new 0 0 171 171;" xml:space="preserve">
<style type="text/css">
	<!-- .st0{fill:#64818E;} -->
	.st0{fill:#fc5603;}
</style>
<g id="Artwork">
	<g>
		<path class="st0" d="M160.6,87.8c0-9.1-7.4-16.5-16.5-16.5c-4.5,0-8.4,1.7-11.3,4.6c-11.2-8-26.8-13.3-43.9-14l7.5-35.2l24.4,5.1
			c0.3,6.2,5.4,11.2,11.7,11.2c6.5,0,11.7-5.3,11.7-11.7c0-6.5-5.3-11.7-11.7-11.7c-4.6,0-8.6,2.6-10.4,6.6l-27.3-5.8
			c-0.8-0.1-1.6,0-2.2,0.4c-0.7,0.4-1.1,1.1-1.3,1.8L83,62c-17.5,0.5-33.2,5.7-44.6,14c-2.9-2.8-7-4.6-11.3-4.6
			c-9.1,0-16.5,7.4-16.5,16.5c0,6.7,4,12.4,9.8,15c-0.3,1.6-0.4,3.3-0.4,5c0,25.3,29.4,45.7,65.8,45.7s65.8-20.4,65.8-45.7
			c0-1.7-0.1-3.3-0.4-4.9C156.5,100.3,160.6,94.5,160.6,87.8z M47.9,99.5c0-6.5,5.3-11.7,11.7-11.7s11.7,5.3,11.7,11.7
			c0,6.5-5.3,11.7-11.7,11.7S47.9,106,47.9,99.5z M113.4,130.5c-8,8-23.3,8.6-27.8,8.6c-4.5,0-19.9-0.7-27.8-8.6
			c-1.2-1.2-1.2-3.2,0-4.3c1.2-1.2,3.2-1.2,4.3,0c5,5,15.8,6.9,23.6,6.9s18.5-1.8,23.6-6.9c1.2-1.2,3.2-1.2,4.3,0
			C114.6,127.5,114.6,129.3,113.4,130.5z M111.3,111.2c-6.5,0-11.7-5.3-11.7-11.7c0-6.5,5.3-11.7,11.7-11.7
			c6.5,0,11.7,5.3,11.7,11.7C123,106,117.8,111.2,111.3,111.2z"/>
	</g>
</g>
</svg>
